<svg width="80px" height="100%" viewBox="0 0 184 90" fill="none" xmlns="http://www.w3.org/2000/svg"><mask id="mask0_64_2091" maskUnits="userSpaceOnUse" x="2" y="0" width="84" height="90"><path d="M2.56787 0H85.4654V89.485H2.56787V0Z" fill="white"></path></mask><g mask="url(#mask0_64_2091)"><path d="M75.083 85.9378C75.083 85.9378 74.9211 85.9905 74.6023 86.0935C74.2785 86.1869 73.7979 86.3234 73.1679 86.5031C72.538 86.6851 71.7588 86.9102 70.8177 87.1282C70.3497 87.2432 69.8463 87.3653 69.3049 87.4947C68.766 87.6216 68.1816 87.7294 67.5669 87.8563C66.9471 87.9809 66.3146 88.1222 65.5759 88.2276C65.2141 88.2851 64.8422 88.3425 64.4628 88.4024C64.0858 88.4647 63.6962 88.5222 63.299 88.5629C61.7103 88.7569 59.9799 88.9078 58.123 88.9677C57.1971 88.994 56.2358 89.0275 55.2491 88.9988C54.7533 88.9892 54.2498 88.9844 53.7413 88.9701C53.2328 88.9413 52.7193 88.9126 52.1956 88.8838C51.935 88.8695 51.6694 88.8551 51.4038 88.8383C51.1407 88.8192 50.875 88.7904 50.6069 88.7665C50.0706 88.7138 49.5292 88.6611 48.9802 88.6084C48.4287 88.5485 47.8772 88.4647 47.3156 88.3904C46.7539 88.3138 46.1873 88.2372 45.6155 88.1318C45.0463 88.0288 44.467 87.9258 43.8826 87.8204C43.3033 87.6982 42.7163 87.5713 42.1218 87.442C41.8258 87.3749 41.5248 87.315 41.2288 87.2432C40.9303 87.1641 40.6318 87.0875 40.3307 87.0108C39.7311 86.848 39.1189 86.7067 38.5143 86.5198C36.0755 85.8228 33.5811 84.9247 31.0563 83.8349C30.4289 83.5523 29.7914 83.2792 29.159 82.9726C28.5316 82.6589 27.8991 82.3427 27.2591 82.0218C26.619 81.6816 25.9739 81.3104 25.3263 80.9463C24.6837 80.5703 24.0538 80.1679 23.4137 79.7703C20.8889 78.1344 18.4502 76.2303 16.1708 74.0459C13.8914 71.8615 11.7765 69.3945 9.92212 66.6449C8.06775 63.9001 6.47902 60.8678 5.28747 57.608C4.10098 54.353 3.2889 50.8513 3.01821 47.3377C2.73234 43.8192 2.86389 40.2504 3.46852 36.7224C4.08074 33.1967 5.07749 29.7788 6.49167 26.5454C6.86102 25.743 7.20761 24.9335 7.62756 24.155C7.82995 23.7622 8.03486 23.3718 8.23725 22.9838C8.45735 22.6006 8.67997 22.2174 8.90007 21.8365C9.3352 21.0581 9.82852 20.3659 10.2991 19.645C10.5369 19.2881 10.7747 18.9312 11.0125 18.5767C11.2756 18.2342 11.5362 17.8869 11.7967 17.5444C13.8712 14.802 16.2492 12.2655 18.9334 10.1027C21.6024 7.93031 24.5193 6.10042 27.55 4.66573C30.5807 3.23583 33.7152 2.16759 36.8345 1.5209C39.9512 0.862239 43.03 0.56524 45.9874 0.546079C51.9148 0.529313 57.2958 1.68138 61.8798 3.31966C66.4613 4.99866 70.2763 7.1495 73.3374 9.33866C76.4061 11.5302 78.7234 13.7529 80.4968 15.6451C80.9269 16.1265 81.3317 16.5816 81.7162 17.0103C81.8098 17.1181 81.9009 17.2235 81.9945 17.3289C82.0805 17.4343 82.164 17.542 82.2475 17.645C82.4145 17.8558 82.5738 18.057 82.7256 18.251C83.3404 19.027 83.8615 19.6809 84.2309 20.2414C84.9924 21.3455 85.3921 21.9275 85.3921 21.9275C85.3921 21.9275 84.9519 21.3743 84.117 20.3204C83.7123 19.7839 83.1506 19.1635 82.4929 18.4282C82.3284 18.2438 82.1564 18.0546 81.9793 17.8558C81.8908 17.7576 81.8022 17.657 81.7086 17.5564C81.6125 17.4582 81.5138 17.3576 81.4127 17.257C81.0079 16.8546 80.5778 16.4259 80.1224 15.9708C78.2605 14.1984 75.8521 12.129 72.7379 10.1291C69.6312 8.13151 65.8213 6.2082 61.3334 4.76633C56.8404 3.36517 51.6466 2.45501 46.0304 2.64902C43.2274 2.7544 40.3307 3.12086 37.4189 3.81785C34.5045 4.50047 31.6003 5.57828 28.8023 6.97465C26.0068 8.37821 23.3302 10.1338 20.8814 12.2009C18.4173 14.2559 16.2391 16.6558 14.3316 19.245C14.0938 19.5683 13.856 19.8941 13.6157 20.2174C13.3956 20.5551 13.1755 20.8904 12.9579 21.2282C12.5253 21.9084 12.0674 22.5623 11.6728 23.2904C11.4704 23.6473 11.268 24.0041 11.0631 24.361C10.8784 24.7275 10.6937 25.0915 10.5065 25.4604C10.1194 26.1861 9.80575 26.943 9.46675 27.6951C8.16642 30.7201 7.24809 33.9152 6.67634 37.2086C6.11219 40.5019 5.97811 43.8264 6.21845 47.1029C6.44866 50.3771 7.17219 53.6225 8.23219 56.662C10.3699 62.7624 13.9521 68.0293 18.1441 72.2448C20.2438 74.3549 22.503 76.2207 24.8532 77.8398C25.4477 78.2326 26.0346 78.6326 26.6317 79.0087C27.2388 79.3703 27.8409 79.7416 28.438 80.0841C29.0401 80.4098 29.6371 80.7332 30.2266 81.0541C30.8211 81.3679 31.4257 81.6481 32.0202 81.9403C34.4084 83.0684 36.7788 84.0217 39.1113 84.7858C39.6907 84.9869 40.2776 85.1474 40.8518 85.3271C41.1403 85.4133 41.4261 85.4995 41.712 85.5857C41.9979 85.6672 42.2837 85.739 42.5696 85.8157C43.1413 85.9618 43.7055 86.1079 44.2621 86.254C44.8262 86.3761 45.3828 86.5007 45.9343 86.6228C46.4833 86.7522 47.0322 86.848 47.5761 86.9462C48.1201 87.042 48.6539 87.145 49.1876 87.2288C49.7214 87.3054 50.2476 87.3797 50.7688 87.4539C51.0294 87.4899 51.2874 87.5282 51.5429 87.5593C51.8035 87.5857 52.059 87.612 52.312 87.6384C52.823 87.6911 53.3265 87.7414 53.8223 87.7917C54.3207 87.8228 54.8089 87.8563 55.2947 87.8899C56.2585 87.9617 57.2022 87.9761 58.1129 87.9952C59.9369 88.0264 61.6445 87.9617 63.2206 87.8539C63.6153 87.8348 63.9998 87.7988 64.3768 87.7557C64.7562 87.7174 65.1231 87.6791 65.4848 87.6432C66.221 87.5761 66.8535 87.4707 67.4758 87.3845C68.0931 87.2935 68.68 87.2192 69.2264 87.1258C69.7704 87.0276 70.2789 86.9366 70.7519 86.8528C71.7006 86.6923 72.4925 86.515 73.1325 86.3761C73.7726 86.2372 74.2633 86.1318 74.5922 86.06C74.916 85.9785 75.083 85.9378 75.083 85.9378Z" fill="#EBEBEB"></path></g><mask id="mask1_64_2091" maskUnits="userSpaceOnUse" x="0" y="27" width="47" height="63"><path d="M0.928711 27.6064H46.9767V90H0.928711V27.6064Z" fill="white"></path></mask><g mask="url(#mask1_64_2091)"><path d="M46.9462 90C46.9462 90 46.6477 89.976 46.0785 89.9281C45.5093 89.8682 44.6744 89.7604 43.5967 89.6191C41.4514 89.2886 38.3448 88.7329 34.5981 87.5665C34.1301 87.418 33.6494 87.2671 33.1611 87.1114C32.6754 86.9342 32.1796 86.7569 31.6761 86.5725C30.6591 86.2204 29.6295 85.7677 28.5543 85.3198C28.018 85.0971 27.4842 84.8264 26.9378 84.5702C26.3913 84.3091 25.8398 84.0576 25.2681 83.7414C24.7014 83.4349 24.1195 83.1331 23.5453 82.8001C22.9811 82.46 22.4068 82.1151 21.8224 81.763C17.2561 78.8649 12.715 74.9321 9.0063 69.9047C7.15953 67.3946 5.60874 64.7431 4.40454 62.0414C3.20034 59.3373 2.33766 56.5949 1.77098 53.9362C1.20936 51.268 0.951317 48.722 0.931078 46.3676C0.90831 44.0132 1.04998 41.8384 1.3485 39.8887C1.90506 35.9798 2.87905 32.95 3.66836 30.9069C4.05795 29.8842 4.41466 29.1082 4.63728 28.5764C4.88774 28.0567 5.01929 27.7812 5.01929 27.7812C5.01929 27.7812 4.93074 28.0711 4.7663 28.6196C4.62969 29.1752 4.39695 29.9872 4.15661 31.041C3.66583 33.1416 3.10673 36.2074 2.96759 40.0204C2.87399 41.9222 2.94229 44.0179 3.14974 46.2574C3.35466 48.4945 3.77208 50.8848 4.44502 53.3614C5.12301 55.8308 6.0464 58.3601 7.24807 60.8534C8.4548 63.3468 9.94487 65.7946 11.6727 68.1442C15.1386 72.8459 19.2471 76.6662 23.4061 79.6457C23.9374 80.0074 24.4611 80.3667 24.9771 80.7188C25.4958 81.0661 26.0295 81.387 26.5482 81.7127C27.0693 82.0481 27.5753 82.3259 28.0787 82.6157C28.5821 82.896 29.0729 83.1953 29.5713 83.4492C30.563 83.9618 31.5168 84.4791 32.4604 84.9055C32.9309 85.1282 33.3914 85.3462 33.8417 85.557C34.297 85.7534 34.7474 85.945 35.1825 86.1342C38.6863 87.624 41.6487 88.5437 43.7105 89.1497C44.7478 89.4323 45.5548 89.6503 46.1012 89.7988C46.6553 89.9305 46.9462 90 46.9462 90Z" fill="#EBEBEB"></path></g><path d="M64.1971 71.064C64.1971 71.064 64.1187 71.0831 63.9669 71.1214C63.8177 71.1574 63.5799 71.2244 63.299 71.2843C62.745 71.3849 61.9431 71.5885 60.8578 71.7346C60.5896 71.7729 60.3088 71.828 60.0052 71.8591C59.7016 71.8903 59.3829 71.9238 59.0489 71.9597C58.3861 72.0484 57.6474 72.0627 56.8581 72.1202C55.2744 72.1705 53.4454 72.1657 51.4164 71.9885C49.3926 71.7993 47.1714 71.4568 44.8414 70.8795C42.5139 70.3047 40.0752 69.4951 37.6617 68.4053C37.0622 68.1275 36.4651 67.8281 35.8655 67.5335C35.3039 67.215 34.7145 66.9275 34.1604 66.5683C33.017 65.9 31.9215 65.1 30.8413 64.2546C29.7661 63.3995 28.7567 62.4438 27.7802 61.4379C26.8391 60.4056 25.9334 59.323 25.1365 58.1613C23.5579 55.8332 22.3891 53.383 21.7314 50.9328C21.0331 48.5089 20.8333 46.0275 20.9092 43.6515C21.0331 41.2731 21.4531 39.0073 22.0881 36.9715C22.7357 34.9356 23.568 33.1272 24.4712 31.5944C24.5825 31.4003 24.6938 31.2111 24.8026 31.0267C24.924 30.8447 25.0404 30.6674 25.1568 30.4926C25.2706 30.3177 25.3844 30.1429 25.4958 29.9728C25.6248 29.8028 25.7513 29.6375 25.8752 29.4723C26.1206 29.1417 26.3584 28.8208 26.5912 28.5094C26.8315 28.2076 27.0845 27.937 27.3147 27.6639C27.5525 27.3981 27.7625 27.1226 27.9952 26.8903C28.228 26.6604 28.4506 26.4376 28.6656 26.2268C28.8807 26.0185 29.0679 25.7957 29.2779 25.6233C29.4853 25.4484 29.6826 25.2807 29.8673 25.1227C31.3498 23.858 32.2605 23.3335 32.2605 23.3335C32.2605 23.3335 32.215 23.3766 32.1189 23.4628C32.0253 23.5491 31.8785 23.664 31.7116 23.8508C31.5395 24.0305 31.327 24.2532 31.074 24.5143C30.9501 24.6484 30.8033 24.7754 30.6693 24.9382C30.5327 25.0987 30.3885 25.2712 30.2341 25.4532C30.0823 25.6328 29.9179 25.8197 29.7459 26.0208C29.5713 26.2125 29.4221 26.4544 29.2424 26.6819C29.0679 26.9142 28.8857 27.1561 28.696 27.4076C28.5063 27.6567 28.3418 27.9513 28.1496 28.2316C27.9649 28.5238 27.76 28.8064 27.5702 29.1226C27.3855 29.4459 27.1983 29.7764 27.0061 30.1213C26.9074 30.289 26.8062 30.4614 26.7075 30.6363C26.6215 30.8087 26.5355 30.9836 26.447 31.1632C26.3584 31.3381 26.2699 31.5177 26.1788 31.6973C26.0979 31.8842 26.0144 32.0734 25.9309 32.265C25.258 33.7931 24.666 35.5511 24.2435 37.4816C23.8286 39.4145 23.6212 41.5198 23.6515 43.6779C23.7299 45.8383 24.0259 48.0298 24.7242 50.1352C24.8709 50.6741 25.1011 51.1986 25.2934 51.7375C25.392 52.0058 25.5286 52.2669 25.6425 52.5327C25.7563 52.801 25.8676 53.0716 26.0118 53.3303C26.1459 53.5962 26.28 53.862 26.4141 54.1303C26.5659 54.3914 26.7177 54.6524 26.8695 54.9159C26.9454 55.0476 27.0137 55.1841 27.0971 55.3135L27.3501 55.7015C27.5247 55.9578 27.6714 56.2284 27.8612 56.4823C28.567 57.517 29.3715 58.4918 30.1962 59.4331C31.0589 60.3505 31.9418 61.2367 32.8879 62.0391C33.8366 62.8318 34.7954 63.5983 35.8023 64.2474C36.2906 64.5995 36.8092 64.8845 37.3025 65.203C37.8388 65.5 38.3777 65.8114 38.9165 66.0988C41.0998 67.2389 43.3285 68.1539 45.4865 68.8676C47.6444 69.5838 49.729 70.0987 51.6492 70.4676C53.5744 70.8244 55.3326 71.0185 56.8733 71.1478C57.6423 71.1813 58.3659 71.2532 59.0211 71.246C59.35 71.2532 59.6662 71.2604 59.9647 71.2676C60.2658 71.2723 60.5466 71.2556 60.8148 71.2532C61.8975 71.2556 62.7121 71.1717 63.2788 71.1526C63.5621 71.1358 63.8101 71.0999 63.9619 71.0879C64.1162 71.0735 64.1971 71.064 64.1971 71.064Z" fill="#EBEBEB"></path><path d="M48.0847 83.7391C48.0847 83.7391 47.9759 83.7271 47.7584 83.7031C47.5433 83.6792 47.2195 83.6528 46.7996 83.5858C46.3796 83.5235 45.861 83.4445 45.2462 83.3535C44.6315 83.2648 43.9307 83.1115 43.1364 82.9654C42.7366 82.8936 42.3217 82.8002 41.8866 82.6948C41.449 82.5918 40.9911 82.484 40.5129 82.3714C40.0348 82.2541 39.5415 82.1056 39.0254 81.9643C38.5118 81.8206 37.9755 81.6745 37.4291 81.49C35.2281 80.8122 32.7691 79.8637 30.1457 78.5895C27.5045 77.3081 24.6913 75.6339 21.9945 73.4759C19.2902 71.3226 16.6338 68.7191 14.3317 65.5887C13.7346 64.8222 13.2135 63.9887 12.6595 63.1624C12.3964 62.7384 12.1484 62.3049 11.8929 61.8714C11.7664 61.6558 11.6374 61.4355 11.5109 61.2175C11.3945 60.9948 11.2782 60.7696 11.1618 60.5421C10.1954 58.7505 9.41116 56.8152 8.75087 54.8057C8.59908 54.2979 8.44223 53.7878 8.28791 53.2776C8.16395 52.7579 8.03746 52.2381 7.91097 51.7136C7.77689 51.1914 7.70352 50.6573 7.5998 50.128C7.55426 49.8621 7.50114 49.5939 7.46066 49.328C7.42777 49.0598 7.39235 48.7915 7.35947 48.5208C7.08371 46.3676 6.98505 44.1713 7.11154 41.9653C7.22791 39.757 7.52896 37.5942 7.99192 35.496C8.44982 33.3931 9.10505 31.3692 9.87665 29.4244C10.2536 28.4495 10.7039 27.5082 11.1416 26.5741C11.6248 25.6568 12.0928 24.7466 12.6316 23.8796C12.7632 23.6592 12.8947 23.4437 13.0238 23.2257C13.1654 23.0149 13.3046 22.809 13.4437 22.6006C13.7245 22.1886 14.0028 21.779 14.2811 21.3695C14.4228 21.1683 14.5543 20.9623 14.7036 20.7635C14.8554 20.5695 15.0071 20.3755 15.1589 20.1815C15.4625 19.7959 15.7636 19.4102 16.0646 19.0294C18.5363 16.0163 21.3722 13.4775 24.3321 11.5063C27.292 9.53267 30.3455 8.10995 33.2397 7.16626C36.1363 6.21539 38.8559 5.72438 41.2415 5.46571C41.8386 5.41781 42.4179 5.3699 42.9744 5.322C43.5285 5.28847 44.0648 5.29086 44.5758 5.27649C45.6004 5.23338 46.5339 5.30044 47.3688 5.33158C47.5787 5.34116 47.7811 5.35074 47.9785 5.36032C48.1758 5.3723 48.3655 5.39625 48.5502 5.41541C48.9195 5.45373 49.2636 5.48966 49.5824 5.52319C49.9011 5.55672 50.1946 5.58786 50.4653 5.619C50.7309 5.66211 50.9712 5.70283 51.1863 5.73636C52.049 5.88486 52.5018 5.9615 52.5018 5.9615C52.5018 5.9615 52.0439 5.93037 51.1711 5.87049C50.9561 5.85372 50.7107 5.83696 50.445 5.82019C50.1743 5.8154 49.8784 5.81061 49.5596 5.80582C49.2408 5.80103 48.8993 5.79624 48.5325 5.79145C48.3503 5.78905 48.1606 5.78187 47.9658 5.78666C47.771 5.79384 47.5686 5.80342 47.3637 5.813C46.5364 5.85133 45.6181 5.8633 44.6214 5.98785C44.123 6.04294 43.5993 6.08366 43.063 6.15791C42.5267 6.24413 41.9701 6.33515 41.3933 6.42856C39.0987 6.85489 36.5208 7.51595 33.8266 8.60095C31.1323 9.67877 28.3343 11.1949 25.6577 13.1924C22.9837 15.19 20.4539 17.681 18.2605 20.5839C17.1651 22.0425 16.1481 23.5826 15.2146 25.2257C14.739 26.0448 14.3292 26.9047 13.9041 27.7669C13.5221 28.6459 13.1224 29.5273 12.7935 30.4399C12.1181 32.2626 11.5387 34.1524 11.1365 36.1068C10.7317 38.0612 10.4636 40.0684 10.3548 42.1114C10.2384 44.1545 10.3194 46.1856 10.5496 48.1712L10.6331 48.916C10.6685 49.1627 10.714 49.4094 10.752 49.6538C10.843 50.1448 10.8987 50.6382 11.0151 51.1196C11.1239 51.6034 11.2301 52.0848 11.3364 52.5639C11.4704 53.0357 11.602 53.5075 11.7361 53.977C12.3028 55.8428 12.9757 57.6488 13.8207 59.3373C13.9244 59.5529 14.023 59.7637 14.1268 59.9744C14.2381 60.1828 14.3494 60.3888 14.4607 60.5948C14.6859 61.0043 14.9009 61.4163 15.1311 61.8163C15.6194 62.6043 16.0773 63.4019 16.606 64.1396C17.6129 65.6509 18.7387 67.0305 19.8771 68.3335C20.4665 68.9682 21.0357 69.6077 21.648 70.1921C21.9515 70.4843 22.2399 70.7885 22.546 71.0687C22.8547 71.349 23.1633 71.6244 23.4669 71.8999C25.9082 74.0866 28.4836 75.8447 30.9375 77.2482C33.3813 78.647 35.7012 79.7488 37.7959 80.5799C38.312 80.8026 38.8255 80.9894 39.3163 81.1715C39.8096 81.3511 40.2802 81.5355 40.7381 81.6912C41.1985 81.8421 41.6387 81.9858 42.0586 82.1247C42.4786 82.2661 42.8808 82.3954 43.2654 82.5008C44.0344 82.7163 44.7124 82.9319 45.312 83.078C45.9116 83.2265 46.4175 83.3535 46.8274 83.4564C47.2347 83.5642 47.5534 83.6241 47.7659 83.6696C47.9785 83.7151 48.0847 83.7391 48.0847 83.7391Z" fill="#EBEBEB"></path><path d="M93.7231 75.5502C93.7231 75.5502 93.6244 75.6148 93.4245 75.7346C93.2272 75.852 92.9312 76.0292 92.5467 76.2615C92.1571 76.4915 91.684 76.7861 91.1072 77.1118C90.5279 77.4351 89.86 77.8088 89.1061 78.2279C88.3421 78.6327 87.487 79.0782 86.5459 79.5596C86.0678 79.7896 85.5719 80.0291 85.0533 80.2782C84.7927 80.4027 84.5271 80.5297 84.2589 80.659C83.9832 80.7788 83.7049 80.9033 83.4216 81.0303C81.1574 82.0602 78.4935 83.1045 75.4652 84.0841C75.0858 84.2062 74.7012 84.3284 74.3142 84.4529C73.9246 84.5775 73.5223 84.6805 73.1201 84.7954C72.3131 85.0182 71.4934 85.2649 70.6383 85.4589C69.7832 85.6553 68.9206 85.89 68.02 86.0553C67.5696 86.1463 67.1168 86.2349 66.6614 86.3259C66.4312 86.3714 66.201 86.4145 65.9683 86.4601C65.7279 86.4984 65.4851 86.5343 65.2422 86.5726C61.3488 87.1978 57.1417 87.4445 52.7651 87.1594C48.3885 86.9032 43.8423 86.1175 39.276 84.7811C36.9966 84.1008 34.7198 83.2673 32.4556 82.2925C31.3348 81.7799 30.204 81.2698 29.0985 80.6758L28.2662 80.2399C27.9879 80.089 27.7096 79.9237 27.4288 79.7632C26.8722 79.4423 26.3081 79.1261 25.7717 78.7692C21.3926 76.034 17.6636 72.6425 14.6455 68.918C13.1226 67.0642 11.8324 65.0858 10.7041 63.0786C10.5675 62.8248 10.4283 62.5733 10.2917 62.3218C10.15 62.0751 10.0185 61.8212 9.89958 61.5601C9.65418 61.0476 9.41132 60.535 9.16845 60.0272C8.9433 59.5123 8.73585 58.9901 8.52588 58.4776C8.30578 57.965 8.13122 57.4405 7.95413 56.9183C7.86559 56.6596 7.77705 56.401 7.69103 56.1423L7.55948 55.7543L7.4507 55.3615C7.30903 54.8393 7.16736 54.3196 7.02569 53.8022C6.88908 53.2849 6.79547 52.7627 6.68163 52.2478C6.63103 51.9891 6.57032 51.7328 6.52731 51.4766C6.48683 51.2179 6.44888 50.964 6.40841 50.7077C6.23385 49.6874 6.1453 48.6766 6.05423 47.685C6.01881 47.1916 6.00616 46.6982 5.98339 46.212C5.97327 45.9677 5.96569 45.7258 5.95557 45.4839C5.9581 45.242 5.96063 45.0025 5.96063 44.763C5.95051 42.8492 6.13265 41.0193 6.36793 39.2733C6.51213 38.4062 6.63356 37.5512 6.82836 36.7296C6.91943 36.3201 7.00292 35.9105 7.09905 35.5105C7.2053 35.1129 7.30903 34.7177 7.41275 34.3297C8.26783 31.2256 9.41132 28.5239 10.6206 26.2485C10.9368 25.6856 11.2404 25.1419 11.5338 24.6174C11.8526 24.1072 12.1612 23.6186 12.4572 23.1468C13.072 22.2318 13.669 21.4318 14.1902 20.6989C15.3261 19.281 16.2242 18.2008 16.9123 17.5206C17.5751 16.826 17.9242 16.4619 17.9242 16.4619C17.9242 16.4619 17.613 16.8547 17.0185 17.6044C16.4038 18.3349 15.6094 19.4846 14.6127 20.9648C14.1598 21.7288 13.6412 22.56 13.1099 23.5012C12.8595 23.9803 12.5964 24.4809 12.3232 25.003C12.0752 25.5323 11.8197 26.0832 11.5541 26.6533C10.5447 28.9502 9.62635 31.6376 8.99643 34.677C8.92053 35.0554 8.84211 35.4387 8.76621 35.8267C8.69791 36.2195 8.64225 36.6147 8.579 37.0147C8.43986 37.8122 8.37409 38.6386 8.28301 39.4745C8.15652 41.1559 8.07557 42.9067 8.18182 44.7222C8.19194 44.9498 8.20206 45.1773 8.21218 45.4049C8.22989 45.6324 8.25012 45.8623 8.27036 46.0923C8.3159 46.5521 8.34879 47.0168 8.40444 47.4838C8.53853 48.4156 8.65996 49.3616 8.86993 50.3149C8.91547 50.552 8.96354 50.7915 9.0116 51.0311C9.0622 51.2706 9.12798 51.5101 9.18869 51.7496C9.31265 52.2286 9.42144 52.7124 9.56817 53.1939C9.71743 53.6705 9.86922 54.1519 10.021 54.6357L10.1374 54.9998L10.274 55.3567C10.3651 55.5962 10.4561 55.8357 10.5472 56.0752C10.7294 56.5567 10.909 57.0405 11.1316 57.5123C11.3441 57.9866 11.5516 58.4656 11.7767 58.9422C12.0196 59.4093 12.2599 59.8787 12.5053 60.353C12.6217 60.5901 12.7532 60.8224 12.8898 61.0523C13.0264 61.2823 13.1605 61.5146 13.2971 61.7469C14.4001 63.5912 15.6474 65.4091 17.0995 67.1121C19.9835 70.5347 23.4898 73.6604 27.5705 76.2088C28.0688 76.5394 28.595 76.834 29.1137 77.1357C29.3717 77.2842 29.6272 77.4399 29.8878 77.5812L30.672 77.9932C31.7067 78.5561 32.7693 79.0447 33.8191 79.5405C35.9442 80.4794 38.087 81.2985 40.2348 81.9811C44.5355 83.3224 48.8312 84.1895 52.9902 84.5703C57.1493 84.9846 61.1692 84.9176 64.9209 84.4936C68.6145 84.0625 71.9589 83.3871 74.9922 82.6134C78.0128 81.835 80.7071 80.9895 83.0168 80.1345C83.3077 80.0315 83.5911 79.9285 83.8719 79.8279C84.1502 79.7201 84.4209 79.6147 84.6865 79.5117C85.2203 79.3034 85.7313 79.107 86.2246 78.9153C87.191 78.5082 88.079 78.1369 88.8759 77.8016C89.6601 77.4495 90.3584 77.1357 90.963 76.8627C91.5676 76.5897 92.066 76.3382 92.4758 76.1466C92.8857 75.9525 93.1968 75.804 93.4068 75.7034C93.6168 75.6053 93.7231 75.5502 93.7231 75.5502Z" fill="#EBEBEB"></path><path d="M104.035 53.8644C104.035 53.8644 103.936 53.9507 103.749 54.1135C103.559 54.2788 103.273 54.5231 102.899 54.8345C102.524 55.1482 102.062 55.5363 101.513 55.9937C100.959 56.4416 100.316 56.959 99.5975 57.5386C96.6932 59.8212 92.4305 63.0594 86.8041 66.3312C83.9884 67.9599 80.8261 69.5814 77.3274 71.0257C75.5717 71.7226 73.7426 72.4196 71.8199 72.9969C69.9074 73.6076 67.9063 74.1034 65.8369 74.5322C65.3182 74.6304 64.7946 74.7309 64.2709 74.8291C63.7472 74.9273 63.2514 74.9824 62.7378 75.0639C62.2293 75.1525 61.7031 75.1884 61.182 75.2459C60.9189 75.2723 60.6583 75.2986 60.3952 75.3249C60.127 75.3393 59.8614 75.3561 59.5932 75.3705C57.4606 75.495 55.2495 75.4878 53.003 75.2866C48.5151 74.8938 43.8804 73.8567 39.4785 72.1083C38.9321 71.8807 38.3907 71.6532 37.8493 71.4256C37.3206 71.1766 36.7944 70.9299 36.2682 70.6832C35.7571 70.4173 35.2486 70.149 34.7402 69.8832C34.2418 69.6149 33.7788 69.3251 33.2981 69.0497C31.4134 67.9 29.678 66.5779 28.1171 65.1456C24.9902 62.2858 22.6096 58.9781 21.0664 55.6129C20.2923 53.9315 19.7205 52.2333 19.3259 50.5615C18.9312 48.8945 18.7516 47.2203 18.7035 45.594C18.658 43.9653 18.7466 42.3845 18.9591 40.8756C19.1792 39.3666 19.503 37.9343 19.8926 36.5906C20.7173 33.9201 21.7823 31.6135 22.9486 29.7669C23.5026 28.84 24.1655 28.0041 24.7068 27.2232C25.0129 26.8592 25.3039 26.5095 25.5796 26.1766C25.7162 26.0113 25.8503 25.8484 25.9819 25.6903C26.1185 25.5347 26.2602 25.3981 26.3942 25.2568C26.9331 24.7059 27.3859 24.191 27.8388 23.8149C28.0563 23.6185 28.2587 23.4341 28.4434 23.2688C28.6255 23.1012 28.7875 22.9455 28.9494 22.8305C29.5818 22.3395 29.9107 22.0833 29.9107 22.0833C29.9107 22.0833 29.6147 22.3731 29.048 22.9263C28.9013 23.0557 28.7571 23.2257 28.5952 23.4102C28.4307 23.5922 28.2537 23.791 28.0589 24.0066C27.6541 24.4185 27.2594 24.9694 26.7889 25.5586C26.675 25.7071 26.5486 25.8532 26.4322 26.0161C26.3183 26.1813 26.2045 26.3514 26.0856 26.5262C25.8453 26.8735 25.5973 27.24 25.3342 27.6208C24.8789 28.428 24.3071 29.2902 23.8568 30.222C22.8955 32.0878 22.0632 34.3751 21.4687 36.9595C21.1954 38.2577 20.988 39.6301 20.8741 41.0576C20.7729 42.4875 20.7881 43.9725 20.9197 45.4742C21.0563 46.9784 21.3093 48.5089 21.7495 50.0059C22.1922 51.51 22.7867 53.0261 23.5558 54.5279C25.0888 57.5242 27.3505 60.4655 30.2598 63.0115C31.7069 64.2833 33.3083 65.4641 35.0286 66.4893C35.4713 66.7336 35.8887 66.9898 36.3466 67.2341C36.8171 67.4761 37.2877 67.718 37.7608 67.9623C38.249 68.1898 38.7373 68.4149 39.2281 68.6425C39.729 68.8533 40.2324 69.064 40.7359 69.2748C44.8241 70.8963 49.1324 71.9095 53.3117 72.3574C55.4038 72.5873 57.4631 72.6424 59.449 72.5825C59.6995 72.5753 59.9474 72.5681 60.1953 72.5633C60.4382 72.5442 60.6836 72.5274 60.929 72.5083C61.4147 72.4699 61.9055 72.4532 62.376 72.3885C62.6138 72.3621 62.8517 72.3334 63.0869 72.3071C63.3273 72.2783 63.5524 72.2639 63.8105 72.2184C64.3139 72.1394 64.8148 72.0628 65.3132 71.9837C67.2991 71.6436 69.2344 71.246 71.0964 70.7358C72.9659 70.2616 74.7621 69.6676 76.4976 69.076C79.9559 67.8401 83.1333 66.4294 85.9996 64.9947C91.7272 62.1109 96.21 59.2056 99.2888 57.1578C100.055 56.638 100.736 56.1734 101.325 55.771C101.912 55.3614 102.411 55.0141 102.813 54.7315C103.215 54.4536 103.519 54.2357 103.724 54.0872C103.929 53.9411 104.035 53.8644 104.035 53.8644Z" fill="#EBEBEB"></path><path d="M87.7629 68.6473C87.7629 68.6473 87.3809 68.8245 86.6497 69.1646C85.9085 69.476 84.8384 69.9862 83.4267 70.549C83.0751 70.6927 82.7057 70.846 82.3161 71.0065C81.9215 71.155 81.5117 71.3131 81.079 71.476C80.224 71.8161 79.2753 72.1346 78.2659 72.4891C76.2344 73.1621 73.912 73.8807 71.3114 74.4843C70.011 74.7741 68.6474 75.0687 67.2181 75.3034C66.5072 75.4447 65.7736 75.5309 65.0298 75.6387C64.2759 75.7585 63.5498 75.8184 62.8061 75.895C59.8284 76.18 56.5776 76.1273 53.1927 75.7657C52.7702 75.7321 52.3452 75.6627 51.9177 75.6052C51.4927 75.5429 51.0626 75.495 50.6325 75.4208C49.7749 75.2603 48.9021 75.1309 48.0344 74.925C46.2913 74.5681 44.5407 74.0795 42.79 73.519C42.3549 73.3729 41.9172 73.2244 41.4796 73.0783C41.047 72.9154 40.6144 72.7502 40.1792 72.5849C39.9617 72.5011 39.7416 72.4244 39.5265 72.3358L38.884 72.0604C38.459 71.8736 38.0188 71.7059 37.5963 71.5023C37.1738 71.3011 36.7513 71.0999 36.3263 70.8987C35.9013 70.6975 35.494 70.4652 35.074 70.2496L34.4466 69.9215L33.8496 69.5742C33.4524 69.3419 33.0476 69.1167 32.6631 68.8557C29.5135 66.8916 26.7914 64.463 24.5499 61.8666C23.4368 60.5613 22.4654 59.196 21.6077 57.8164C21.4003 57.4667 21.1954 57.1218 20.9879 56.7746C20.8033 56.4225 20.6186 56.068 20.4364 55.7183C20.2416 55.3734 20.0898 55.0141 19.9305 54.6596C19.7761 54.3052 19.5889 53.9603 19.465 53.601C19.3258 53.2441 19.1892 52.8896 19.0501 52.5375C18.9185 52.1831 18.8173 51.8238 18.6984 51.4717C18.6402 51.2945 18.5821 51.1172 18.5264 50.9424C18.4708 50.7651 18.4328 50.5855 18.3847 50.4106C18.2962 50.0562 18.1899 49.7065 18.1115 49.3544C17.7928 47.9413 17.6005 46.5353 17.4765 45.1629C17.2893 42.4109 17.4462 39.793 17.8585 37.4361C18.2734 35.0793 18.9034 32.9812 19.5965 31.1944C19.7736 30.7489 19.933 30.313 20.1278 29.9106C20.3175 29.5082 20.4718 29.1034 20.6666 28.7442C20.8513 28.3753 21.0309 28.0232 21.2004 27.6903C21.3927 27.3598 21.5749 27.0436 21.7494 26.7466C22.096 26.1502 22.392 25.6089 22.7057 25.1802C22.9992 24.7371 23.2496 24.3634 23.452 24.0593C23.6468 23.7503 23.8365 23.5491 23.9428 23.3958C24.0566 23.2473 24.1148 23.1707 24.1148 23.1707C24.1148 23.1707 24.0465 23.2401 23.9149 23.3742C23.7885 23.5132 23.5734 23.6952 23.3407 23.9802C23.1029 24.2604 22.8069 24.6077 22.4578 25.0173C22.0935 25.4173 21.7342 25.9275 21.3168 26.4927C21.1094 26.7777 20.8893 27.0771 20.6565 27.3933C20.4465 27.7166 20.229 28.0568 19.9988 28.4112C19.761 28.7609 19.5611 29.1561 19.3258 29.5513C19.0855 29.9441 18.8755 30.3753 18.6504 30.816C17.7573 32.586 16.9048 34.6985 16.2698 37.1272C15.6323 39.5535 15.2528 42.2983 15.2579 45.2467C15.2882 46.7197 15.4021 48.2406 15.6601 49.7879C15.7234 50.1759 15.8119 50.5591 15.8878 50.9496C15.9308 51.146 15.9637 51.3424 16.0118 51.5364C16.0623 51.7304 16.1155 51.9244 16.1686 52.1208C16.2774 52.5112 16.3685 52.9088 16.4924 53.2992C16.6214 53.6896 16.753 54.0824 16.8845 54.4776C17.006 54.8776 17.1881 55.2608 17.3374 55.6584C17.4968 56.0512 17.646 56.4512 17.8408 56.8368C18.0255 57.2248 18.2127 57.6176 18.3974 58.0128C18.6074 58.3961 18.8173 58.7841 19.0298 59.1721C19.9128 60.7122 20.9247 62.2331 22.1061 63.6893C24.4816 66.5779 27.4188 69.2652 30.8619 71.4161C31.2844 71.6987 31.7245 71.9478 32.1622 72.1993L32.8174 72.5753L33.4929 72.9274C33.9457 73.1573 34.3885 73.4017 34.8464 73.6172C35.3068 73.828 35.7647 74.0388 36.2201 74.2495C36.6754 74.4627 37.1485 74.6375 37.6089 74.8316L38.3021 75.1142C38.5323 75.2076 38.7701 75.2866 39.0054 75.3729C39.4734 75.5381 39.9389 75.7058 40.4044 75.871C40.8749 76.0195 41.3455 76.1656 41.8135 76.3118C43.6932 76.8698 45.5703 77.3369 47.4348 77.6578C48.3633 77.8446 49.2917 77.9548 50.2075 78.089C50.6654 78.1512 51.1258 78.1848 51.5787 78.2327C52.034 78.2758 52.4843 78.3309 52.9347 78.35C56.5321 78.5847 59.9651 78.465 63.0843 77.9812C63.8661 77.8566 64.625 77.7441 65.3916 77.574C66.153 77.4135 66.9019 77.2794 67.6254 77.0878C69.08 76.7501 70.4537 76.3525 71.7617 75.9621C76.9757 74.3262 80.9627 72.3981 83.6519 70.9802C85.0053 70.2832 86.0173 69.6676 86.718 69.2796C87.4036 68.8652 87.7629 68.6473 87.7629 68.6473Z" fill="#EBEBEB"></path><path d="M51.4519 75.1764C51.4519 75.1764 51.3457 75.1596 51.1382 75.1237C50.9308 75.0925 50.6247 75.0231 50.2225 74.9393C49.8227 74.8482 49.3244 74.7596 48.7425 74.6159C48.1632 74.4626 47.4877 74.3213 46.7439 74.1033C45.2513 73.6938 43.4501 73.1118 41.4288 72.3166C39.4125 71.519 37.1862 70.4675 34.9144 69.1047C34.6412 68.9346 34.3655 68.7598 34.0897 68.5825C33.948 68.4963 33.8089 68.4077 33.6672 68.3191C33.5331 68.2257 33.394 68.1299 33.2574 68.034C32.9816 67.8424 32.7008 67.6508 32.42 67.4544C32.1468 67.246 31.871 67.0377 31.5928 66.8245C31.4562 66.7191 31.317 66.6137 31.1753 66.5083C31.0413 66.3934 30.9046 66.2808 30.768 66.1658C30.4973 65.9359 30.2165 65.7132 29.9433 65.476C29.4171 64.985 28.8555 64.5084 28.3445 63.9695C27.8056 63.4569 27.3148 62.8917 26.7962 62.3312C26.5533 62.0414 26.3079 61.7468 26.0625 61.4498C25.807 61.16 25.5819 60.851 25.3491 60.5396C24.8659 59.9313 24.4485 59.2726 23.9982 58.6211C23.5985 57.9457 23.1684 57.2775 22.8117 56.5637C22.7156 56.3889 22.6194 56.2116 22.5233 56.0368C22.4398 55.8547 22.3563 55.6751 22.2703 55.4931C22.1868 55.311 22.1008 55.129 22.0148 54.947C21.9263 54.7673 21.8428 54.5829 21.772 54.3937C21.6227 54.0224 21.4709 53.6464 21.3191 53.2704C21.1901 52.8871 21.0585 52.5015 20.9295 52.1135C20.4463 50.5591 20.0896 48.9567 19.8999 47.2681C19.5153 43.903 19.7633 40.2647 20.7018 36.696C21.1673 34.9116 21.7947 33.1895 22.5587 31.5728C22.7561 31.1752 22.9559 30.7776 23.1532 30.3824C23.3632 29.992 23.5858 29.6159 23.7958 29.2303C24.021 28.8519 24.2815 28.4758 24.5168 28.0998C24.7622 27.7238 24.9848 27.3357 25.2606 26.9932C25.5212 26.6388 25.7792 26.2867 26.0372 25.9346C26.1587 25.7525 26.3054 25.5945 26.4446 25.4316L26.862 24.9382C27.3907 24.2604 28.008 23.6831 28.5772 23.0724C29.789 21.9323 31.0109 20.8497 32.3441 19.9898C32.5086 19.8749 32.6705 19.7623 32.8324 19.6497C32.9943 19.5347 33.1714 19.4461 33.3358 19.3431C33.6723 19.1419 34.0088 18.9431 34.3402 18.742C34.6817 18.5599 35.0308 18.3947 35.3698 18.2174C35.5393 18.1288 35.7088 18.0402 35.8783 17.954C36.0503 17.8677 36.2299 17.8031 36.402 17.7264C36.7511 17.5755 37.0977 17.427 37.4392 17.2785C37.7883 17.1396 38.145 17.027 38.4916 16.9001C39.1797 16.6246 39.8982 16.4666 40.5888 16.2534C43.3868 15.5157 46.1519 15.2906 48.6868 15.348C51.2293 15.4079 53.5441 15.784 55.5427 16.2702C55.7931 16.3348 56.0385 16.3971 56.2789 16.4594C56.5217 16.5169 56.7595 16.5743 56.9872 16.6534C57.4451 16.7971 57.8853 16.936 58.3103 17.0701C58.7328 17.2043 59.1224 17.3719 59.5044 17.5085C59.8839 17.6546 60.2558 17.7719 60.5846 17.9324C60.9186 18.0785 61.2373 18.2174 61.5333 18.3492C61.8344 18.4785 62.1127 18.5982 62.3606 18.7348C62.8666 18.9911 63.2941 19.2066 63.6407 19.3815C63.9847 19.5611 64.2327 19.7192 64.4072 19.815C64.5792 19.9156 64.6678 19.9659 64.6678 19.9659C64.6678 19.9659 64.5868 19.906 64.4275 19.7862C64.2681 19.6737 64.0353 19.4868 63.7166 19.2689C63.3902 19.0581 62.988 18.797 62.5124 18.4905C62.2771 18.3276 62.0115 18.1767 61.7256 18.0186C61.4397 17.8581 61.1336 17.6857 60.8123 17.5037C60.4961 17.3097 60.1369 17.154 59.7675 16.9695C59.3956 16.7947 59.0136 16.5863 58.5987 16.4091C58.1788 16.2342 57.7436 16.0522 57.2883 15.863C57.0631 15.7624 56.8278 15.681 56.585 15.5995C56.3421 15.5157 56.0967 15.4295 55.8463 15.3408C53.8376 14.663 51.4697 14.0762 48.7956 13.8127C46.1317 13.5565 43.1566 13.5924 40.0702 14.2079C39.3062 14.3924 38.5119 14.5241 37.7428 14.7804C37.3557 14.8977 36.9585 15.0007 36.5689 15.1301C36.1819 15.2738 35.7948 15.4175 35.4027 15.5612C35.2079 15.6355 35.0055 15.6977 34.8132 15.784C34.6235 15.8702 34.4312 15.9564 34.239 16.0426C33.8544 16.2175 33.4598 16.3827 33.0727 16.5696C32.6958 16.7731 32.3138 16.9743 31.9318 17.1803C31.742 17.2857 31.5422 17.3767 31.3575 17.4941C31.1728 17.6091 30.9881 17.7264 30.8009 17.8438C29.2805 18.7372 27.8739 19.8797 26.4876 21.1012C25.8323 21.7527 25.1316 22.3754 24.5244 23.1035L24.0513 23.6352C23.892 23.8125 23.7275 23.9849 23.5858 24.1789C23.2924 24.5598 22.9989 24.9382 22.7004 25.3214C22.3918 25.6927 22.1337 26.1094 21.8605 26.5142C21.5923 26.9238 21.3014 27.3262 21.0459 27.7429C20.803 28.1645 20.5475 28.5788 20.3097 29.0076C20.0846 29.4435 19.8594 29.8794 19.6317 30.3177C18.7665 32.0949 18.0607 33.9895 17.5471 35.9535C16.5175 39.8815 16.2923 43.8958 16.8135 47.6202C17.3245 51.3399 18.5995 54.7745 20.3907 57.7804C20.8157 58.5421 21.3191 59.2511 21.7922 59.9624C22.3133 60.645 22.8041 61.3324 23.3607 61.9648C23.6263 62.2857 23.892 62.6067 24.1804 62.906C24.4662 63.2078 24.7394 63.5144 25.0228 63.8066C25.6122 64.3767 26.1739 64.9515 26.7836 65.4641C27.3654 66.0054 27.9928 66.4772 28.5848 66.9634C28.8934 67.1958 29.2046 67.4137 29.5082 67.6389C29.66 67.749 29.8118 67.8616 29.9635 67.9694C30.1179 68.0724 30.2747 68.1778 30.429 68.2784C30.7377 68.4819 31.0438 68.6831 31.3474 68.8843C31.6585 69.0688 31.9672 69.2532 32.2733 69.4328C32.4251 69.5238 32.5769 69.6148 32.7261 69.7035C32.8804 69.7873 33.0348 69.8687 33.1891 69.9502C33.4952 70.113 33.7962 70.2735 34.0948 70.434C36.5639 71.6819 38.9394 72.5848 41.0695 73.2291C43.2047 73.871 45.0793 74.2974 46.6276 74.5728C47.3966 74.7189 48.0923 74.8003 48.6868 74.8961C49.2813 74.9824 49.7924 75.0207 50.2022 75.0686C50.612 75.1117 50.9232 75.1476 51.1332 75.1572C51.3432 75.1692 51.4519 75.1764 51.4519 75.1764Z" fill="#EBEBEB"></path><path d="M66.9852 80.3404C66.9852 80.3404 66.5703 80.3883 65.7785 80.4817C65.3838 80.532 64.8955 80.5895 64.3137 80.6278C64.0253 80.6518 63.7141 80.6757 63.3802 80.7021C63.2132 80.7164 63.0437 80.7284 62.8666 80.7428C62.687 80.75 62.5049 80.7571 62.3176 80.7643C61.5638 80.7907 60.7314 80.8386 59.8131 80.8218C59.3577 80.8146 58.8821 80.8314 58.3863 80.8074C57.893 80.7883 57.3794 80.7667 56.8456 80.7452C54.7231 80.6182 52.3147 80.3691 49.6963 79.8901C44.4773 78.9392 38.3728 77.0519 32.4049 73.6675C30.9351 72.8053 29.4652 71.8736 28.0612 70.7981C26.6622 69.7227 25.2784 68.5659 23.9932 67.2773C22.7106 65.9887 21.4786 64.6139 20.3604 63.1265C19.2523 61.6367 18.2378 60.0535 17.3423 58.3889C16.4644 56.7171 15.7536 54.9998 15.1742 53.2705C14.605 51.5364 14.223 49.7831 13.965 48.0371C13.7019 46.291 13.6209 44.5521 13.6437 42.8492C13.6411 41.9965 13.712 41.1534 13.7651 40.3199C13.8612 39.4912 13.9295 38.6649 14.0763 37.8601C14.5721 34.6219 15.5335 31.6159 16.7124 28.9142C16.8692 28.5813 17.0261 28.2484 17.1804 27.9226C17.2563 27.7574 17.3347 27.5945 17.4131 27.4316C17.4966 27.2735 17.5826 27.1155 17.6661 26.9574C17.8331 26.6412 18 26.3299 18.1645 26.0209C18.3466 25.7191 18.5262 25.4197 18.7059 25.1227C19.394 23.9203 20.1833 22.8425 20.922 21.8006C22.4652 19.7624 24.0995 18.0882 25.625 16.6918C26.0221 16.3613 26.4041 16.0427 26.776 15.7337C26.9607 15.5804 27.1429 15.4295 27.3199 15.2811C27.5097 15.1445 27.6944 15.0104 27.874 14.8811C28.2357 14.6176 28.5823 14.3661 28.9112 14.1266C29.2401 13.8823 29.5816 13.6955 29.8903 13.4919C30.5151 13.0967 31.0666 12.735 31.5802 12.4787C32.0836 12.2057 32.5086 11.9734 32.8552 11.7865C33.2069 11.6093 33.4826 11.4919 33.6648 11.4033C33.8494 11.3195 33.943 11.2764 33.943 11.2764C33.943 11.2764 33.8444 11.3075 33.6496 11.3722C33.4598 11.4392 33.1689 11.5279 32.797 11.6668C32.4302 11.8177 31.9774 12.0045 31.441 12.2272C30.8946 12.4332 30.3051 12.7422 29.6297 13.0799C29.2957 13.2548 28.9264 13.4128 28.5697 13.6284C28.2104 13.8416 27.831 14.0667 27.4388 14.299C27.239 14.4164 27.0391 14.5362 26.8317 14.6583C26.6344 14.7924 26.4345 14.9314 26.2296 15.0703C25.8198 15.3553 25.3947 15.6475 24.9546 15.9541C23.2596 17.2523 21.4128 18.8522 19.6368 20.8593C18.7818 21.8845 17.8735 22.9599 17.064 24.1694C16.854 24.4664 16.6441 24.7682 16.429 25.0724C16.2342 25.3886 16.0344 25.7071 15.837 26.0281C15.7358 26.1909 15.6372 26.3514 15.536 26.5143C15.4424 26.6819 15.3488 26.8496 15.2552 27.0173C15.068 27.355 14.8808 27.6951 14.6936 28.0376C13.2642 30.8255 12.0651 33.9728 11.3769 37.417C11.1796 38.2745 11.0683 39.1559 10.9292 40.0445C10.8356 40.9379 10.7268 41.8408 10.6964 42.763C10.6053 44.5976 10.6408 46.4874 10.8811 48.3939C11.1138 50.3029 11.4984 52.2382 12.0979 54.1471C12.7076 56.0488 13.4792 57.9386 14.438 59.7661C15.412 61.584 16.5302 63.3013 17.7572 64.9085C18.9917 66.5084 20.3528 67.9743 21.7695 69.3371C23.1913 70.6975 24.7167 71.9023 26.2625 73.0089C27.8082 74.1154 29.4273 75.0615 31.0388 75.9166C34.2745 77.5812 37.5253 78.8051 40.6345 79.6889C43.7461 80.5703 46.7212 81.1092 49.4484 81.4086C52.1781 81.7104 54.6624 81.7703 56.833 81.7176C57.3744 81.6937 57.898 81.6697 58.4015 81.6481C58.9074 81.629 59.3881 81.5691 59.8511 81.5332C60.777 81.4685 61.6144 81.3416 62.3682 81.2434C62.5555 81.217 62.7376 81.1931 62.9172 81.1667C63.0943 81.138 63.2638 81.1068 63.4308 81.0781C63.7597 81.0182 64.0708 80.9607 64.3592 80.908C64.9335 80.8122 65.4142 80.7021 65.8012 80.611C66.5779 80.4338 66.9852 80.3404 66.9852 80.3404Z" fill="#EBEBEB"></path><path d="M105.251 60.2402C105.251 60.2402 104.879 60.4869 104.176 60.9564C103.824 61.1911 103.387 61.4809 102.873 61.8234C102.355 62.1611 101.755 62.5468 101.082 62.9827C98.3802 64.7072 94.4286 67.1502 89.3436 69.7154C84.2662 72.2711 77.9998 74.9201 70.7493 76.6063C70.2965 76.7093 69.8411 76.8146 69.3832 76.92C68.9203 77.0087 68.4573 77.0997 67.9893 77.1907C67.0608 77.3871 66.1096 77.5236 65.1483 77.6745C64.9105 77.7104 64.6676 77.7559 64.4298 77.7847C64.192 77.811 63.9567 77.8398 63.7164 77.8661C63.2408 77.914 62.7652 77.9931 62.2795 78.0218C61.7963 78.0577 61.308 78.0937 60.8198 78.1296C60.329 78.1631 59.8356 78.1655 59.3398 78.1871C57.3589 78.2374 55.3326 78.1919 53.2834 77.9954C51.2393 77.8062 49.1648 77.526 47.103 77.0853C42.9693 76.2398 39.0455 74.9392 35.481 73.2866C35.2583 73.1836 35.0306 73.0878 34.8131 72.9776L34.1629 72.6471C33.7354 72.4243 33.2876 72.2231 32.8778 71.9836C32.4654 71.7537 32.053 71.5238 31.6457 71.2938C31.246 71.0471 30.8488 70.8004 30.4542 70.5561C28.8958 69.5502 27.4386 68.4652 26.0902 67.3251C24.7595 66.1634 23.5351 64.9611 22.4245 63.7228C22.1513 63.4114 21.8932 63.0905 21.6276 62.7791C21.496 62.6234 21.3645 62.4677 21.2355 62.312C21.1115 62.1516 20.9901 61.9911 20.8686 61.8306C20.6308 61.5097 20.3829 61.1959 20.1502 60.8773C19.9275 60.554 19.7074 60.2307 19.4899 59.9097C19.3811 59.7492 19.2673 59.5935 19.1661 59.4307C19.0674 59.2678 18.9687 59.1049 18.8701 58.9421C18.6727 58.6163 18.4779 58.2954 18.2832 57.9768C18.1086 57.6487 17.934 57.3253 17.762 57.0044C17.6735 56.8439 17.5874 56.6834 17.5014 56.5254C17.4179 56.3625 17.3471 56.1996 17.2712 56.0391C17.1194 55.7158 16.9702 55.3949 16.8209 55.0787C16.6666 54.7625 16.5553 54.4368 16.4237 54.1206C16.2972 53.8021 16.1632 53.4907 16.0468 53.177C15.9431 52.8608 15.8368 52.547 15.7331 52.2381C14.9109 49.7615 14.496 47.4118 14.3113 45.3257C14.1266 43.2371 14.1772 41.4168 14.2708 39.9294C14.3316 39.1893 14.3796 38.5258 14.4682 37.9582C14.5415 37.3858 14.5997 36.9019 14.6807 36.5139C14.7464 36.1259 14.7996 35.8289 14.835 35.6301C14.8679 35.4289 14.8906 35.3259 14.8906 35.3259C14.8906 35.3259 14.8552 35.4265 14.7996 35.6205C14.7414 35.8169 14.6554 36.1067 14.5415 36.4876C14.4201 36.866 14.3088 37.3426 14.1722 37.9103C14.0229 38.4731 13.9065 39.1318 13.7674 39.8767C13.5195 41.3641 13.2867 43.2084 13.2842 45.3664C13.2817 47.5196 13.5043 49.9842 14.1671 52.6404C14.2506 52.9734 14.3366 53.3087 14.4226 53.6488C14.5188 53.9865 14.6351 54.3218 14.7414 54.6667C14.8578 55.0044 14.9514 55.3589 15.088 55.7014C15.2221 56.0439 15.3587 56.3912 15.4927 56.7433C15.5636 56.9182 15.6268 57.0978 15.7027 57.2726C15.7837 57.4451 15.8621 57.6199 15.9405 57.7948C16.1024 58.1469 16.2643 58.5014 16.4263 58.8582C16.6109 59.2079 16.7956 59.56 16.9828 59.9169C17.0764 60.0941 17.1726 60.2714 17.2662 60.451C17.3623 60.6306 17.4736 60.8031 17.5773 60.9803C17.7898 61.3324 18.0023 61.6869 18.2174 62.0462C18.4451 62.3983 18.6879 62.7432 18.9257 63.1C19.0446 63.2749 19.1635 63.4521 19.285 63.6318C19.4165 63.8018 19.5455 63.9767 19.6746 64.1491C19.9402 64.494 20.1982 64.8485 20.474 65.1958C21.5871 66.5706 22.8343 67.9143 24.208 69.2125C29.718 74.3955 37.6237 78.2757 46.4124 80.0912C48.6108 80.5583 50.8193 80.8481 53.0026 81.0229C55.1858 81.2121 57.3488 81.2265 59.4638 81.1283C61.5838 81.0445 63.6506 80.7786 65.6517 80.4265C66.651 80.2397 67.6402 80.0625 68.6066 79.8253C69.0898 79.7128 69.5704 79.6026 70.0486 79.4924C70.5217 79.3631 70.9922 79.2361 71.4602 79.1116C78.9409 77.0661 85.1972 73.9812 90.1557 71.0471C95.1192 68.1035 98.8558 65.3299 101.386 63.3683C102.013 62.8725 102.572 62.4318 103.055 62.0486C103.533 61.6582 103.936 61.3276 104.262 61.0618C104.912 60.5277 105.251 60.2402 105.251 60.2402Z" fill="#EBEBEB"></path><path d="M135.496 38.7655C135.496 38.7655 133.216 40.7583 129.098 44.363C127.033 46.1641 124.501 48.3652 121.523 50.8849C118.541 53.4046 115.103 56.2357 111.197 59.2488C109.234 60.7482 107.159 62.2978 104.951 63.8523C102.737 65.4043 100.397 66.9707 97.9151 68.5156C92.9515 71.591 87.396 74.5634 81.2055 76.9657C78.1115 78.1609 74.8607 79.2051 71.4707 80.0243C71.0457 80.1273 70.6207 80.2279 70.1932 80.3309C69.7631 80.4195 69.333 80.5057 68.9004 80.5943C68.4678 80.6806 68.0352 80.7692 67.6001 80.8554C67.165 80.9296 66.7248 81.0015 66.2846 81.0758C64.5339 81.3895 62.7226 81.562 60.9087 81.6985C57.2682 81.9021 53.5494 81.7392 49.8331 81.2171C49.3701 81.1428 48.9072 81.0686 48.4417 80.9943L47.7434 80.8817L47.0503 80.7428C46.5873 80.6494 46.1243 80.556 45.6588 80.4626C45.1984 80.3524 44.738 80.2422 44.2776 80.1321C43.3491 79.9261 42.4434 79.6411 41.5226 79.3896C41.0647 79.2554 40.6118 79.0974 40.1565 78.9537C39.7036 78.8028 39.2432 78.6662 38.7979 78.4914C35.1955 77.1884 31.7524 75.5861 28.6407 73.5646C27.0873 72.5562 25.6023 71.4688 24.2337 70.2832C23.5279 69.7108 22.8904 69.0761 22.2275 68.4701C21.6077 67.8258 20.9576 67.2103 20.3833 66.5372C19.1816 65.2319 18.1267 63.8307 17.1451 62.408C16.9098 62.0439 16.6746 61.6847 16.4418 61.323C16.1989 60.9661 16.0042 60.5853 15.7841 60.2188C15.3388 59.4883 14.972 58.7219 14.59 57.9722C14.3901 57.5961 14.2434 57.2033 14.0688 56.8225C13.9069 56.4369 13.7147 56.0609 13.5806 55.668C13.2947 54.8872 12.9861 54.116 12.766 53.3232C12.2549 51.7568 11.9362 50.1592 11.6781 48.5784C11.2177 45.4096 11.1823 42.2624 11.5567 39.2469C11.7136 37.7356 12.0197 36.265 12.3435 34.8231C12.7154 33.3908 13.1201 31.9872 13.6362 30.6436C14.6431 27.949 15.9257 25.4269 17.4411 23.1875C18.9463 20.9408 20.6059 18.8954 22.4072 17.1206C24.2261 15.3649 26.1412 13.8536 28.0841 12.5866C28.5799 12.2848 29.0758 11.9998 29.5615 11.7099C29.8069 11.571 30.0422 11.4177 30.2926 11.2908C30.5406 11.1662 30.7885 11.0417 31.0339 10.9172C31.5297 10.6776 32.0028 10.4118 32.4936 10.2034C32.9869 9.99502 33.4726 9.78904 33.9483 9.58785C34.4213 9.37228 34.9121 9.22857 35.3827 9.05612C35.8583 8.89804 36.3162 8.71841 36.7817 8.58667C37.2497 8.45494 37.7051 8.328 38.1554 8.20345C38.3805 8.14357 38.6031 8.0813 38.8232 8.02142C39.0459 7.97352 39.266 7.92801 39.4861 7.88011C39.9237 7.78909 40.3538 7.70047 40.7712 7.61185C40.9812 7.56155 41.1912 7.52802 41.3961 7.50167C41.6061 7.47054 41.8084 7.4394 42.0108 7.41066C42.4181 7.35078 42.8128 7.2933 43.1973 7.23581C43.5844 7.18551 43.9639 7.16635 44.3307 7.13043C45.0669 7.06815 45.7626 6.99869 46.4178 6.99869C47.0705 6.98672 47.6878 6.95319 48.257 6.96995C49.3929 7.01067 50.3618 7.01785 51.1334 7.11126C51.9101 7.1903 52.5046 7.22623 52.8992 7.28851C53.2939 7.34838 53.4963 7.37713 53.4963 7.37713C53.4963 7.37713 53.2964 7.33641 52.9068 7.25497C52.5147 7.16875 51.9227 7.10168 51.1511 6.98193C50.3795 6.8454 49.4106 6.78792 48.2671 6.68493C47.6954 6.63942 47.0756 6.64421 46.4127 6.62265C45.7499 6.58912 45.0441 6.62265 44.2953 6.6514C43.9209 6.66816 43.5363 6.67056 43.1417 6.70409C42.747 6.74241 42.3422 6.78073 41.9299 6.82145C41.7199 6.84301 41.5099 6.86456 41.2974 6.88612C41.0849 6.90289 40.8699 6.92923 40.6548 6.96756C40.2222 7.03941 39.782 7.10887 39.3317 7.18312C39.1041 7.22144 38.8764 7.25737 38.6462 7.29569C38.4185 7.34838 38.1857 7.39868 37.9555 7.45138C37.49 7.55916 37.0144 7.66694 36.5312 7.77951C36.0455 7.89448 35.5673 8.05735 35.0715 8.20106C34.5782 8.35435 34.0672 8.48368 33.5713 8.68248C33.0704 8.8693 32.5619 9.06091 32.0433 9.25492C31.5247 9.44893 31.0238 9.70042 30.5001 9.92796C30.2421 10.0477 29.9789 10.1651 29.7158 10.2848C29.4502 10.4046 29.2023 10.5531 28.9417 10.6872C28.4256 10.9651 27.8969 11.2429 27.3682 11.5375C25.2937 12.7686 23.2344 14.2656 21.2586 16.0308C19.3056 17.8176 17.4866 19.8918 15.8245 22.1935C15.4248 22.7779 15.0226 23.3695 14.6178 23.9683C14.2409 24.5862 13.8538 25.2114 13.4946 25.8581C13.1556 26.5119 12.7786 27.1586 12.4725 27.8412C12.3131 28.1814 12.1537 28.5215 11.9918 28.864C11.84 29.2089 11.7009 29.561 11.5542 29.9131C10.9622 31.3142 10.4891 32.7848 10.0515 34.289C9.66186 35.8027 9.29504 37.3548 9.08 38.9523C8.5968 42.1427 8.54115 45.4983 8.9611 48.9161C9.19637 50.6191 9.50501 52.3532 10.0211 54.0537C10.2437 54.9136 10.5574 55.7519 10.8534 56.6022C10.9926 57.0309 11.1899 57.4381 11.3569 57.8596C11.5365 58.274 11.6908 58.7027 11.8957 59.1099C12.2954 59.9266 12.68 60.7601 13.1454 61.5553C13.3757 61.9553 13.5806 62.3697 13.8336 62.7577C14.079 63.1505 14.3294 63.5433 14.5748 63.9361C15.6095 65.4858 16.7277 67.0115 18.0027 68.4318C18.6124 69.1647 19.3031 69.8329 19.9633 70.5323C20.6692 71.191 21.3497 71.8808 22.1036 72.5035C23.5658 73.7921 25.1546 74.9729 26.8217 76.0699C30.1839 78.2806 33.8192 79.9836 37.6519 81.3704C38.1275 81.5548 38.6158 81.7009 39.0965 81.859C39.5797 82.0123 40.0578 82.1799 40.5461 82.3188C41.5226 82.5871 42.4864 82.8841 43.4705 83.1021C43.9588 83.217 44.4471 83.332 44.9353 83.4469C45.4286 83.5428 45.9194 83.641 46.4102 83.7368L47.1464 83.8805L47.8851 83.9954C48.3784 84.0721 48.8692 84.1511 49.3625 84.2254C53.304 84.7571 57.2531 84.896 61.1237 84.6325C61.6094 84.5894 62.0901 84.5463 62.5708 84.5008L63.2918 84.4337L64.0103 84.3403C64.4884 84.2733 64.964 84.2086 65.4396 84.1439C65.9127 84.0721 66.3655 83.9811 66.826 83.902C67.2839 83.8206 67.7418 83.7368 68.1997 83.6553C68.65 83.5571 69.1028 83.4589 69.5531 83.3607C70.0034 83.2625 70.4512 83.1619 70.899 83.0637C71.3417 82.9512 71.7844 82.8362 72.2246 82.7236C75.7461 81.8111 79.1007 80.6614 82.2706 79.356C88.6154 76.7357 94.2139 73.5358 99.1598 70.2545C101.634 68.609 103.949 66.942 106.129 65.2965C108.305 63.6463 110.331 62.008 112.244 60.4248C116.051 57.2417 119.366 54.2525 122.224 51.5963C125.083 48.9377 127.494 46.612 129.452 44.7079C131.4 42.7965 132.913 41.3116 133.94 40.3056C134.959 39.2972 135.496 38.7655 135.496 38.7655Z" fill="#EBEBEB"></path><path d="M97.7983 4.13637C97.7983 4.13637 97.9628 4.08368 98.279 3.98069C98.6028 3.88967 99.0835 3.75075 99.7134 3.56872C100.343 3.38909 101.125 3.16155 102.064 2.94598C102.532 2.83102 103.035 2.70886 103.576 2.57713C104.118 2.45258 104.7 2.3448 105.314 2.21546C105.934 2.09331 106.567 1.952 107.305 1.84422C107.667 1.78913 108.039 1.72925 108.416 1.66937C108.798 1.6071 109.185 1.55201 109.582 1.51129C111.171 1.31728 112.901 1.16639 114.758 1.10412C115.684 1.08016 116.646 1.04663 117.632 1.07777C118.128 1.08496 118.632 1.08975 119.14 1.10412C119.648 1.13286 120.165 1.1616 120.686 1.19034C120.949 1.20471 121.212 1.21908 121.478 1.23585C121.743 1.25261 122.006 1.28375 122.274 1.3077C122.811 1.358 123.352 1.41069 123.904 1.46578C124.453 1.52566 125.004 1.60949 125.566 1.68374C126.127 1.76039 126.697 1.83703 127.266 1.94481C127.838 2.04541 128.414 2.1484 128.999 2.25139C129.581 2.37833 130.168 2.50288 130.76 2.63222C131.056 2.69689 131.354 2.75916 131.655 2.83341C131.951 2.91006 132.25 2.9867 132.551 3.06335C133.148 3.22622 133.762 3.36753 134.367 3.55435C136.806 4.25134 139.298 5.14952 141.825 6.23931C142.452 6.52194 143.09 6.79498 143.722 7.10156C144.35 7.41533 144.985 7.73388 145.622 8.05243C146.262 8.39255 146.907 8.76379 147.558 9.12546C148.198 9.50389 148.825 9.90628 149.468 10.3039C151.992 11.9398 154.431 13.8439 156.711 16.0283C158.99 18.2102 161.105 20.682 162.962 23.4293C164.814 26.1765 166.402 29.204 167.594 32.4662C168.78 35.7212 169.592 39.2229 169.866 42.7365C170.149 46.2574 170.017 49.8238 169.413 53.3518C168.803 56.8775 167.804 60.2954 166.39 63.5288C166.02 64.3336 165.676 65.1383 165.256 65.9192C165.051 66.3096 164.849 66.7 164.647 67.0904C164.424 67.4736 164.201 67.8568 163.981 68.2377C163.549 69.0137 163.055 69.7083 162.582 70.4292C162.344 70.7861 162.107 71.1406 161.869 71.4975C161.606 71.8424 161.348 72.1849 161.087 72.5274C159.01 75.2698 156.632 77.8087 153.948 79.9715C151.279 82.1439 148.362 83.9738 145.331 85.4061C142.298 86.836 139.166 87.9066 136.047 88.5533C132.93 89.212 129.851 89.5089 126.894 89.5281C120.969 89.5449 115.588 88.3928 111.002 86.7545C106.42 85.0755 102.608 82.9247 99.5439 80.7355C96.4752 78.544 94.1579 76.3213 92.3845 74.4291C91.9544 73.9477 91.5496 73.4902 91.1676 73.0615C91.0715 72.9561 90.9779 72.8507 90.8868 72.7477C90.8008 72.6375 90.7173 72.5322 90.6338 72.4292C90.4694 72.2184 90.31 72.0172 90.1557 71.8232C89.541 71.0472 89.0223 70.3933 88.6505 69.8328C87.889 68.7287 87.4893 68.1466 87.4893 68.1466C87.4893 68.1466 87.9294 68.6999 88.7643 69.7562C89.1691 70.2903 89.7307 70.9106 90.3884 71.646C90.5529 71.828 90.7249 72.0196 90.902 72.2184C90.9905 72.3166 91.0816 72.4172 91.1727 72.5202C91.2688 72.616 91.3675 72.7166 91.4687 72.8172C91.8735 73.2196 92.3035 73.6483 92.7589 74.1034C94.6234 75.8782 97.0293 77.9452 100.143 79.9451C103.25 81.9427 107.06 83.866 111.548 85.3055C116.041 86.709 121.235 87.6168 126.851 87.4252C129.657 87.3198 132.553 86.9533 135.462 86.2563C138.377 85.5713 141.281 84.4959 144.079 83.0995C146.877 81.6984 149.554 79.9403 152.003 77.8757C154.464 75.8183 156.642 73.4184 158.547 70.8292C158.788 70.5059 159.028 70.1801 159.268 69.8568C159.486 69.5191 159.706 69.1837 159.923 68.846C160.356 68.1658 160.816 67.5119 161.209 66.7838C161.411 66.4269 161.613 66.0701 161.818 65.7108C162.003 65.3467 162.19 64.9803 162.377 64.6138C162.762 63.8857 163.076 63.1288 163.415 62.3791C164.715 59.3541 165.633 56.1589 166.205 52.8656C166.769 49.5723 166.903 46.2454 166.66 42.9713C166.433 39.6971 165.712 36.4517 164.649 33.4098C162.509 27.3118 158.929 22.0449 154.737 17.8294C152.638 15.7169 150.381 13.8535 148.031 12.2344C147.434 11.8416 146.847 11.4416 146.25 11.0655C145.645 10.7039 145.043 10.3326 144.443 9.99011C143.841 9.66437 143.244 9.34102 142.655 9.02007C142.058 8.7087 141.456 8.42608 140.861 8.13387C138.473 7.00576 136.103 6.05249 133.77 5.28844C133.191 5.08485 132.604 4.92677 132.029 4.74713C131.741 4.65851 131.455 4.57229 131.169 4.48846C130.883 4.40463 130.595 4.33517 130.312 4.25852C129.74 4.11242 129.178 3.96392 128.619 3.82261C128.055 3.69806 127.499 3.57351 126.947 3.45136C126.398 3.32202 125.849 3.22622 125.305 3.12801C124.761 3.03221 124.225 2.92682 123.694 2.84539C123.16 2.76874 122.634 2.69449 122.113 2.62024C121.855 2.58671 121.596 2.5436 121.338 2.51486C121.08 2.48851 120.825 2.46216 120.569 2.43582C120.058 2.38312 119.555 2.33283 119.062 2.28253C118.563 2.249 118.072 2.21786 117.589 2.18672C116.623 2.11008 115.679 2.0981 114.768 2.07894C112.944 2.0478 111.237 2.11008 109.661 2.22265C109.266 2.24181 108.882 2.27534 108.505 2.31846C108.125 2.35678 107.758 2.3951 107.397 2.43342C106.663 2.50049 106.028 2.60348 105.406 2.6897C104.788 2.78072 104.201 2.85497 103.657 2.94838C103.111 3.04418 102.602 3.1376 102.129 3.22143C101.181 3.3819 100.389 3.55914 99.7488 3.69806C99.1062 3.83698 98.618 3.94236 98.2891 4.01422C97.9653 4.09565 97.7983 4.13637 97.7983 4.13637Z" fill="#FFB323"></path><mask id="mask2_64_2091" maskUnits="userSpaceOnUse" x="125" y="0" width="47" height="63"><path d="M125.743 0.0717773H171.905V62.312H125.743V0.0717773Z" fill="white"></path></mask><g mask="url(#mask2_64_2091)"><path d="M125.936 0.0717773C125.936 0.0717773 126.237 0.098124 126.806 0.146027C127.372 0.205905 128.207 0.313687 129.285 0.455001C131.43 0.785531 134.537 1.33881 138.286 2.50525C138.752 2.65614 139.232 2.80703 139.721 2.96272C140.206 3.13756 140.702 3.3172 141.206 3.49923C142.223 3.85611 143.252 4.304 144.327 4.75429C144.864 4.97704 145.398 5.24769 145.944 5.50397C146.493 5.76744 147.042 6.01653 147.614 6.33269C148.18 6.63927 148.765 6.94106 149.337 7.27398C149.903 7.61409 150.477 7.96139 151.057 8.30868C155.626 11.2092 160.169 15.1396 163.873 20.1694C165.722 22.682 167.273 25.331 168.477 28.0327C169.681 30.7344 170.544 33.4793 171.111 36.1379C171.672 38.8061 171.93 41.3521 171.951 43.7065C171.973 46.0634 171.832 48.2382 171.533 50.1854C170.977 54.0943 170 57.1242 169.213 59.1672C168.824 60.1899 168.47 60.966 168.247 61.4977C167.997 62.0174 167.865 62.2929 167.865 62.2929C167.865 62.2929 167.951 62.0031 168.115 61.4522C168.252 60.8965 168.485 60.087 168.725 59.0331C169.216 56.9325 169.775 53.8668 169.914 50.0537C170.005 48.1519 169.942 46.0562 169.735 43.8167C169.527 41.5797 169.11 39.1893 168.437 36.7127C167.759 34.2433 166.838 31.7141 165.634 29.2207C164.429 26.7274 162.937 24.2771 161.209 21.9275C157.743 17.2258 153.635 13.408 149.473 10.4284C148.944 10.0643 148.423 9.70745 147.907 9.35297C147.386 9.00567 146.852 8.68712 146.334 8.36138C145.815 8.02606 145.306 7.75062 144.803 7.45841C144.297 7.17818 143.809 6.87878 143.313 6.6249C142.321 6.11234 141.368 5.59498 140.421 5.16625C139.953 4.9459 139.493 4.72794 139.04 4.51717C138.582 4.32077 138.137 4.12916 137.699 3.94233C134.193 2.45016 131.233 1.53042 129.174 0.922054C128.134 0.641822 127.327 0.423864 126.778 0.275365C126.226 0.141237 125.936 0.0717773 125.936 0.0717773Z" fill="#FFB323"></path></g><path d="M108.685 19.0102C108.685 19.0102 108.763 18.991 108.915 18.9503C109.064 18.9168 109.302 18.8497 109.583 18.7898C110.137 18.6892 110.939 18.4832 112.021 18.3395C112.292 18.3036 112.573 18.2485 112.877 18.215C113.18 18.1815 113.499 18.1479 113.833 18.1144C114.496 18.0258 115.234 18.0114 116.024 17.9539C117.61 17.9036 119.436 17.906 121.465 18.0856C123.489 18.2749 125.71 18.6174 128.04 19.1946C130.37 19.7694 132.807 20.579 135.22 21.6688C135.82 21.9466 136.417 22.246 137.019 22.5406C137.578 22.8592 138.167 23.1466 138.724 23.5059C139.867 24.1765 140.96 24.9741 142.04 25.8196C143.116 26.6746 144.125 27.6303 145.102 28.6363C146.043 29.6686 146.948 30.7512 147.745 31.9152C149.324 34.2409 150.495 36.6935 151.15 39.1414C151.851 41.5653 152.048 44.0466 151.973 46.4226C151.849 48.801 151.431 51.0668 150.794 53.1027C150.149 55.1386 149.314 56.9469 148.411 58.4798C148.299 58.6714 148.188 58.8606 148.079 59.0498C147.96 59.2295 147.841 59.4067 147.725 59.5815C147.611 59.7564 147.497 59.9288 147.383 60.1013C147.257 60.269 147.13 60.439 147.006 60.6019C146.761 60.9324 146.521 61.2534 146.291 61.5647C146.053 61.8665 145.797 62.1372 145.567 62.4102C145.329 62.6761 145.119 62.9515 144.886 63.1838C144.656 63.4138 144.431 63.6365 144.219 63.8473C144.001 64.0557 143.814 64.276 143.601 64.4485C143.396 64.6257 143.199 64.7934 143.014 64.9515C141.532 66.2161 140.619 66.7406 140.619 66.7406C140.619 66.7406 140.669 66.6975 140.763 66.6113C140.856 66.5251 141.006 66.4101 141.17 66.2209C141.342 66.0413 141.555 65.8209 141.808 65.5574C141.932 65.4257 142.078 65.2988 142.215 65.1359C142.349 64.9754 142.493 64.803 142.645 64.6209C142.802 64.4413 142.964 64.2521 143.136 64.0557C143.31 63.8617 143.462 63.6198 143.639 63.3922C143.814 63.1599 143.996 62.918 144.186 62.6665C144.375 62.4174 144.542 62.1228 144.732 61.8402C144.917 61.5527 145.122 61.2677 145.314 60.9516C145.496 60.6306 145.683 60.2953 145.876 59.9552C145.974 59.7827 146.073 59.6127 146.177 59.4378C146.26 59.2654 146.349 59.0881 146.435 58.9109C146.523 58.7361 146.612 58.5564 146.703 58.3744C146.784 58.19 146.867 58.0007 146.951 57.8091C147.624 56.281 148.218 54.523 148.641 52.5925C149.053 50.6596 149.263 48.5543 149.23 46.3963C149.152 44.2382 148.856 42.0443 148.158 39.939C148.013 39.4001 147.781 38.8755 147.588 38.3366C147.487 38.0683 147.353 37.8073 147.242 37.539C147.125 37.2732 147.014 37.0025 146.867 36.7414C146.736 36.478 146.602 36.2121 146.468 35.9439C146.316 35.6828 146.164 35.4217 146.012 35.1582C145.936 35.0265 145.868 34.89 145.785 34.7607L145.532 34.3726C145.357 34.1164 145.21 33.8457 145.023 33.5918C144.315 32.5571 143.51 31.5823 142.686 30.6386C141.823 29.7237 140.94 28.8375 139.994 28.0351C139.045 27.2423 138.086 26.4758 137.079 25.8244C136.594 25.4723 136.073 25.1897 135.582 24.8735C135.043 24.5741 134.504 24.2651 133.965 23.9753C131.784 22.8352 129.551 21.9203 127.395 21.2065C125.237 20.4904 123.153 19.9754 121.233 19.6066C119.307 19.2497 117.549 19.0557 116.006 18.9263C115.239 18.8952 114.516 18.821 113.863 18.8257C113.532 18.821 113.218 18.8138 112.917 18.8066C112.616 18.7994 112.335 18.8162 112.067 18.8186C110.984 18.8186 110.17 18.9024 109.605 18.9216C109.32 18.9383 109.074 18.9742 108.922 18.9862C108.763 19.0006 108.685 19.0102 108.685 19.0102Z" fill="#FFB323"></path><path d="M124.794 6.33521C124.794 6.33521 124.906 6.34718 125.123 6.37113C125.341 6.39508 125.662 6.42143 126.082 6.48849C126.502 6.55077 127.021 6.62741 127.635 6.72082C128.25 6.80944 128.951 6.96034 129.745 7.10884C130.145 7.18069 130.56 7.2741 130.998 7.37949C131.433 7.48248 131.891 7.59026 132.371 7.70283C132.849 7.8202 133.34 7.96869 133.856 8.11001C134.372 8.25372 134.909 8.39982 135.453 8.58664C137.653 9.26447 140.112 10.2106 142.736 11.4824C145.377 12.7638 148.19 14.4404 150.887 16.5984C153.591 18.7492 156.245 21.3552 158.55 24.4856C159.144 25.2521 159.668 26.0856 160.222 26.9119C160.485 27.3334 160.733 27.7694 160.989 28.2005C161.115 28.4208 161.244 28.6364 161.371 28.8544C161.487 29.0819 161.603 29.307 161.72 29.5322C162.686 31.3238 163.47 33.259 164.131 35.271C164.285 35.7763 164.439 36.2841 164.594 36.7967C164.72 37.3164 164.844 37.8362 164.971 38.3607C165.107 38.8828 165.178 39.4146 165.282 39.9463C165.327 40.2121 165.38 40.4804 165.421 40.7463C165.456 41.0145 165.489 41.2852 165.522 41.5534C165.795 43.7043 165.897 45.903 165.773 48.1089C165.654 50.3173 165.35 52.4801 164.892 54.5806C164.434 56.6788 163.777 58.7051 163.005 60.6499C162.631 61.6247 162.178 62.566 161.74 63.5001C161.257 64.4175 160.789 65.3276 160.25 66.1947C160.118 66.415 159.989 66.6306 159.858 66.8486C159.716 67.0569 159.577 67.2653 159.438 67.4737C159.157 67.8857 158.879 68.2952 158.601 68.7024C158.459 68.906 158.327 69.112 158.178 69.3084C158.026 69.5048 157.874 69.6988 157.723 69.8928C157.419 70.2808 157.118 70.6616 156.817 71.0449C154.348 74.0579 151.509 76.5968 148.552 78.568C145.59 80.5416 142.536 81.9619 139.642 82.908C136.745 83.8565 134.026 84.3499 131.64 84.6062C131.041 84.6565 130.466 84.7068 129.91 84.7523C129.353 84.7858 128.817 84.7834 128.306 84.7978C127.281 84.8409 126.348 84.7762 125.51 84.7427C125.303 84.7331 125.1 84.7235 124.903 84.714C124.706 84.702 124.516 84.678 124.331 84.6589C123.965 84.6205 123.618 84.5846 123.299 84.5511C122.98 84.5175 122.687 84.484 122.419 84.4553C122.151 84.4122 121.91 84.3714 121.693 84.3355C120.833 84.1894 120.382 84.1128 120.382 84.1128C120.382 84.1128 120.838 84.1439 121.71 84.2038C121.928 84.2206 122.168 84.2373 122.439 84.2565C122.707 84.2589 123.003 84.2637 123.322 84.2685C123.641 84.2732 123.982 84.278 124.349 84.2828C124.534 84.2852 124.721 84.2924 124.916 84.2876C125.111 84.278 125.313 84.2709 125.52 84.2613C126.345 84.2229 127.263 84.2086 128.263 84.0864C128.759 84.0313 129.282 83.993 129.819 83.9164C130.355 83.8277 130.911 83.7391 131.488 83.6457C133.783 83.2194 136.361 82.5559 139.055 81.4733C141.752 80.3955 144.547 78.8794 147.224 76.8818C149.898 74.8867 152.428 72.3933 154.624 69.488C155.716 68.0318 156.733 66.4917 157.667 64.8462C158.143 64.0271 158.552 63.1696 158.977 62.3074C159.362 61.4307 159.759 60.5469 160.088 59.632C160.764 57.8117 161.343 55.9219 161.745 53.9675C162.15 52.013 162.418 50.0059 162.527 47.9604C162.643 45.9198 162.562 43.8887 162.332 41.9007L162.249 41.1582C162.213 40.9091 162.168 40.6648 162.13 40.4181C162.039 39.9295 161.983 39.4361 161.867 38.9547C161.758 38.4709 161.651 37.9894 161.545 37.5104C161.411 37.0362 161.28 36.5667 161.146 36.0973C160.579 34.2315 159.906 32.4255 159.061 30.7346C158.96 30.5238 158.856 30.3106 158.757 30.0974C158.646 29.8915 158.532 29.6855 158.421 29.4795C158.196 29.0699 157.981 28.658 157.75 28.2556C157.262 27.47 156.807 26.6724 156.276 25.9347C155.271 24.4233 154.143 23.0461 153.002 21.7408C152.413 21.1061 151.846 20.4642 151.234 19.8845C150.933 19.5899 150.642 19.2858 150.336 19.0055C150.027 18.7253 149.721 18.4475 149.415 18.1744C146.973 15.9876 144.398 14.2296 141.944 12.826C139.5 11.4273 137.183 10.3255 135.088 9.4944C134.57 9.26926 134.059 9.08483 133.565 8.9028C133.072 8.72556 132.601 8.53874 132.144 8.38305C131.683 8.23216 131.243 8.08606 130.823 7.94953C130.403 7.80822 130.001 7.67888 129.616 7.5735C128.847 7.35793 128.169 7.14237 127.57 6.99627C126.973 6.84777 126.464 6.72082 126.054 6.61783C125.644 6.51005 125.328 6.45017 125.118 6.40466C124.903 6.35916 124.794 6.33521 124.794 6.33521Z" fill="#FFB323"></path><path d="M79.1611 14.5242C79.1611 14.5242 79.2573 14.4595 79.4571 14.3397C79.6545 14.2224 79.9504 14.0451 80.3375 13.8128C80.7246 13.5829 81.2002 13.2883 81.7744 12.9625C82.3538 12.6392 83.0217 12.2655 83.7755 11.844C84.5396 11.4416 85.3946 10.9961 86.3357 10.5147C86.8139 10.2848 87.3123 10.0452 87.8309 9.79615C88.0889 9.6716 88.3545 9.54466 88.6227 9.41532C88.8985 9.29557 89.1767 9.17102 89.4626 9.04408C91.7243 8.01177 94.3882 6.96988 97.4164 5.99026C97.7959 5.86811 98.1804 5.74596 98.57 5.62141C98.9571 5.49687 99.3593 5.39387 99.7616 5.27891C100.569 5.05616 101.388 4.80706 102.243 4.61545C103.098 4.41665 103.964 4.18432 104.864 4.01906C105.312 3.92804 105.765 3.83942 106.223 3.74841C106.45 3.7029 106.681 3.65979 106.913 3.61428C107.154 3.57596 107.397 3.54003 107.639 3.49931C111.535 2.87418 115.74 2.62988 120.117 2.91729C124.496 3.17118 129.039 3.95918 133.606 5.29088C135.885 5.9711 138.162 6.80701 140.426 7.78183C141.547 8.2944 142.678 8.80456 143.781 9.40095L144.618 9.83447C144.896 9.98537 145.172 10.1506 145.453 10.3087C146.009 10.6345 146.574 10.9482 147.11 11.3051C151.489 14.0403 155.218 17.4319 158.239 21.1539C159.759 23.0102 161.052 24.9886 162.175 26.9957C162.314 27.2496 162.453 27.4987 162.59 27.7526C162.732 28.0017 162.863 28.2531 162.982 28.5118C163.227 29.0268 163.47 29.5369 163.713 30.0471C163.938 30.5621 164.146 31.0818 164.356 31.5992C164.576 32.1093 164.75 32.6339 164.928 33.1536C165.016 33.4147 165.105 33.6734 165.191 33.932L165.322 34.32L165.431 34.7129C165.573 35.235 165.717 35.7547 165.856 36.2721C165.993 36.787 166.086 37.3116 166.2 37.8265C166.251 38.0852 166.311 38.3415 166.354 38.5978C166.395 38.8541 166.435 39.1127 166.473 39.3666C166.65 40.387 166.736 41.3953 166.827 42.3869C166.863 42.8851 166.875 43.3761 166.898 43.8623C166.908 44.1066 166.916 44.3485 166.926 44.5904C166.924 44.8323 166.921 45.0719 166.921 45.3114C166.931 47.2251 166.749 49.055 166.514 50.801C166.37 51.6681 166.248 52.5232 166.053 53.3447C165.962 53.7543 165.879 54.1638 165.785 54.5638C165.676 54.9614 165.573 55.3542 165.469 55.7446C164.614 58.8487 163.47 61.5505 162.261 63.8259C161.947 64.3887 161.641 64.9324 161.348 65.4569C161.029 65.9671 160.723 66.4557 160.427 66.9276C159.81 67.8425 159.213 68.6425 158.691 69.3754C157.556 70.7909 156.657 71.8735 155.969 72.5538C155.307 73.2484 154.957 73.6124 154.957 73.6124C154.957 73.6124 155.269 73.2196 155.863 72.4699C156.48 71.7394 157.272 70.5897 158.266 69.1095C158.722 68.3455 159.24 67.5144 159.772 66.5755C160.025 66.0941 160.285 65.5935 160.558 65.0713C160.806 64.542 161.062 63.9911 161.328 63.4211C162.34 61.1241 163.258 58.4368 163.885 55.3997C163.961 55.0189 164.04 54.6357 164.118 54.2453C164.184 53.8549 164.239 53.4597 164.303 53.0597C164.442 52.2621 164.508 51.4358 164.599 50.5999C164.725 48.9185 164.806 47.1676 164.7 45.3521C164.69 45.1269 164.68 44.8994 164.672 44.6695C164.652 44.4419 164.632 44.212 164.611 43.9821C164.566 43.5222 164.533 43.0575 164.477 42.5905C164.343 41.6588 164.222 40.7103 164.012 39.7594C163.966 39.5223 163.918 39.2828 163.87 39.0433C163.819 38.8038 163.754 38.5642 163.695 38.3247C163.569 37.8457 163.46 37.3595 163.313 36.8805C163.164 36.4038 163.012 35.9224 162.861 35.4386L162.744 35.0745L162.61 34.7152C162.519 34.4781 162.428 34.2386 162.337 33.9991C162.155 33.5177 161.973 33.0339 161.753 32.562C161.538 32.0878 161.33 31.6087 161.105 31.1321C160.865 30.6651 160.622 30.1956 160.376 29.7238C160.26 29.4842 160.131 29.2519 159.992 29.022C159.858 28.7921 159.721 28.5597 159.585 28.3274C158.482 26.4831 157.237 24.6652 155.785 22.9623C152.901 19.5396 149.392 16.4139 145.314 13.8655C144.813 13.5326 144.287 13.2428 143.771 12.9386C143.51 12.7901 143.254 12.6368 142.994 12.4931L142.21 12.0811C141.175 11.5159 140.112 11.0297 139.06 10.5339C136.937 9.59496 134.797 8.77582 132.649 8.0932C128.349 6.75192 124.053 5.88488 119.891 5.50166C115.732 5.08969 111.712 5.15675 107.961 5.58069C104.265 6.01422 100.923 6.68965 97.892 7.46088C94.8689 8.23931 92.1746 9.08479 89.8649 9.93986C89.5765 10.0429 89.2906 10.1458 89.0098 10.2464C88.7315 10.3542 88.4608 10.4596 88.1952 10.5626C87.6639 10.7686 87.1503 10.9674 86.657 11.159C85.6881 11.5662 84.8027 11.9374 84.0083 12.2727C83.2215 12.6248 82.5233 12.9386 81.9187 13.2116C81.314 13.4871 80.8156 13.7338 80.4058 13.9278C79.996 14.1218 79.6848 14.2703 79.4774 14.3709C79.2649 14.4691 79.1611 14.5242 79.1611 14.5242Z" fill="#FFB323"></path><path d="M68.8472 36.2098C68.8472 36.2098 68.9458 36.1236 69.1356 35.9607C69.3228 35.793 69.6061 35.5511 69.9831 35.2397C70.3575 34.926 70.823 34.538 71.3694 34.0805C71.926 33.6326 72.5635 33.1153 73.2845 32.5332C76.1887 30.2531 80.449 27.0148 86.0779 23.743C88.8936 22.1143 92.0559 20.4928 95.5546 19.0486C97.3103 18.3516 99.1394 17.6546 101.06 17.0774C102.975 16.4666 104.978 15.9708 107.045 15.5421C107.564 15.4439 108.087 15.3433 108.611 15.2451C109.135 15.1469 109.631 15.0894 110.144 15.0103C110.655 14.9217 111.179 14.8858 111.7 14.8283C111.963 14.802 112.226 14.7756 112.489 14.7493C112.755 14.7325 113.021 14.7181 113.286 14.7038C115.424 14.5768 117.632 14.5864 119.879 14.7876C124.369 15.1804 129.002 16.2175 133.403 17.966C133.95 18.1935 134.491 18.421 135.033 18.6486C135.561 18.8953 136.088 19.1444 136.614 19.3911C137.125 19.6569 137.633 19.9228 138.142 20.1887C138.64 20.4593 139.103 20.7491 139.584 21.0246C141.469 22.1742 143.204 23.4987 144.765 24.9262C147.892 27.7861 150.272 31.0985 151.816 34.4613C152.59 36.1427 153.161 37.8409 153.559 39.5127C153.951 41.1797 154.13 42.8539 154.181 44.4802C154.224 46.1065 154.135 47.6897 153.925 49.1987C153.703 50.7076 153.379 52.1399 152.992 53.4812C152.167 56.1542 151.1 58.4607 149.933 60.3073C149.379 61.2343 148.717 62.0702 148.175 62.851C147.872 63.215 147.578 63.5647 147.302 63.8977C147.166 64.0629 147.032 64.2258 146.9 64.3839C146.766 64.5372 146.622 64.6761 146.49 64.8174C145.949 65.3683 145.499 65.8832 145.043 66.2593C144.823 66.4557 144.623 66.6377 144.439 66.8054C144.256 66.973 144.095 67.1263 143.93 67.2437C143.3 67.7347 142.971 67.991 142.971 67.991C142.971 67.991 143.267 67.7012 143.834 67.1479C143.981 67.0185 144.125 66.8485 144.287 66.6641C144.451 66.482 144.628 66.2808 144.823 66.0677C145.228 65.6557 145.62 65.1048 146.093 64.5156C146.207 64.3671 146.333 64.221 146.452 64.0581C146.564 63.8929 146.677 63.7204 146.796 63.548C147.034 63.2007 147.285 62.8342 147.548 62.4558C148.003 61.6462 148.575 60.7864 149.025 59.8499C149.986 57.9864 150.821 55.6991 151.413 53.1147C151.687 51.8165 151.894 50.4441 152.008 49.0142C152.109 47.5843 152.094 46.1017 151.962 44.5976C151.826 43.0958 151.573 41.5653 151.132 40.0684C150.69 38.5642 150.095 37.0481 149.326 35.5487C147.793 32.55 145.531 29.6088 142.622 27.0627C141.175 25.7885 139.574 24.6101 137.853 23.585C137.411 23.3431 136.993 23.0844 136.535 22.8401C136.065 22.5982 135.592 22.3539 135.121 22.112C134.633 21.8844 134.145 21.6593 133.656 21.4317C133.153 21.221 132.65 21.0102 132.144 20.7994C128.06 19.1779 123.75 18.1648 119.57 17.7145C117.478 17.4869 115.421 17.4318 113.433 17.4917C113.182 17.4989 112.935 17.5037 112.687 17.5109C112.441 17.53 112.198 17.5468 111.956 17.566C111.467 17.6019 110.979 17.6211 110.506 17.6857C110.268 17.7121 110.03 17.7408 109.793 17.7672C109.555 17.7959 109.33 17.8103 109.072 17.8558C108.568 17.9348 108.067 18.0115 107.569 18.0905C105.583 18.4306 103.648 18.8282 101.786 19.3384C99.916 19.8126 98.1199 20.4066 96.3869 20.9982C92.9261 22.2341 89.7486 23.6448 86.8823 25.0795C81.1548 27.9609 76.6719 30.8686 73.5957 32.9141C72.8291 33.4362 72.1486 33.8985 71.5566 34.3008C70.9697 34.7128 70.4738 35.0601 70.0716 35.3403C69.6668 35.6206 69.3633 35.8385 69.1583 35.987C68.9534 36.1331 68.8472 36.2098 68.8472 36.2098Z" fill="#FFB323"></path><path d="M85.1191 21.4293C85.1191 21.4293 85.5011 21.2496 86.2323 20.9119C86.971 20.5981 88.0436 20.088 89.4553 19.5251C89.8069 19.3814 90.1763 19.2281 90.5684 19.0677C90.9605 18.9192 91.3729 18.7611 91.803 18.5982C92.6606 18.2557 93.6067 17.9395 94.6161 17.5851C96.6476 16.912 98.97 16.1935 101.568 15.5923C102.871 15.3001 104.235 15.0055 105.664 14.7708C106.375 14.6294 107.108 14.5456 107.852 14.4354C108.606 14.3157 109.332 14.2534 110.076 14.1792C113.054 13.8917 116.304 13.9468 119.687 14.3085C120.112 14.342 120.537 14.4115 120.964 14.469C121.389 14.5312 121.819 14.5791 122.249 14.6534C123.107 14.8115 123.98 14.9432 124.848 15.1492C126.591 15.5061 128.341 15.9947 130.092 16.5551C130.527 16.7012 130.965 16.8474 131.402 16.9958C131.835 17.1587 132.268 17.324 132.703 17.4869C132.92 17.5731 133.14 17.6497 133.355 17.7383L133.998 18.0138C134.426 18.2006 134.866 18.3683 135.286 18.5719C135.708 18.773 136.133 18.9742 136.558 19.173C136.983 19.3766 137.388 19.609 137.81 19.8221L138.435 20.1527L139.03 20.4999C139.43 20.7323 139.832 20.9574 140.216 21.2185C143.371 23.1825 146.091 25.6112 148.332 28.2075C149.448 29.5129 150.417 30.8781 151.274 32.2577C151.482 32.6074 151.689 32.9547 151.892 33.2996C152.079 33.6541 152.261 34.0038 152.446 34.3535C152.64 34.7008 152.792 35.06 152.954 35.4145C153.106 35.7714 153.293 36.1139 153.417 36.4732C153.556 36.8301 153.693 37.1845 153.832 37.5366C153.963 37.8911 154.065 38.2504 154.184 38.6025C154.242 38.7797 154.297 38.9545 154.356 39.1318C154.411 39.3066 154.449 39.4863 154.5 39.6635C154.588 40.018 154.692 40.3653 154.77 40.7198C155.089 42.1329 155.284 43.5389 155.405 44.9113C155.593 47.6633 155.436 50.2812 155.021 52.6356C154.609 54.9948 153.979 57.093 153.285 58.8798C153.108 59.3253 152.949 59.7612 152.757 60.1636C152.567 60.5659 152.41 60.9683 152.218 61.33C152.031 61.6989 151.854 62.0509 151.682 62.3863C151.489 62.7168 151.307 63.0306 151.133 63.3276C150.786 63.9239 150.49 64.4652 150.176 64.894C149.883 65.3371 149.632 65.7107 149.43 66.0125C149.233 66.3215 149.045 66.5251 148.937 66.6784C148.825 66.8269 148.767 66.9035 148.767 66.9035C148.767 66.9035 148.836 66.834 148.967 66.6999C149.094 66.561 149.309 66.379 149.541 66.0939C149.779 65.8137 150.075 65.464 150.424 65.0568C150.789 64.6569 151.148 64.1467 151.565 63.5814C151.773 63.2964 151.993 62.997 152.223 62.6809C152.433 62.3575 152.653 62.0174 152.883 61.6629C153.121 61.3108 153.321 60.918 153.559 60.5228C153.797 60.1276 154.006 59.6989 154.232 59.2582C155.125 57.4882 155.977 55.3733 156.612 52.947C157.25 50.5207 157.629 47.7759 157.624 44.8274C157.594 43.3544 157.48 41.8335 157.222 40.2839C157.159 39.8982 157.07 39.5126 156.994 39.1222C156.951 38.9282 156.918 38.7318 156.87 38.5378C156.82 38.3438 156.767 38.1474 156.713 37.9534C156.605 37.563 156.516 37.1654 156.39 36.775C156.261 36.3822 156.129 35.9894 155.997 35.5942C155.876 35.1966 155.694 34.8133 155.545 34.4181C155.385 34.0229 155.233 33.623 155.041 33.2373C154.857 32.8493 154.669 32.4565 154.482 32.0613C154.275 31.6781 154.065 31.2901 153.852 30.9021C152.972 29.362 151.955 27.8411 150.776 26.3872C148.403 23.4963 145.466 20.8065 142.02 18.6581C141.598 18.3755 141.157 18.1264 140.72 17.8749L140.067 17.4988L139.389 17.1467C138.936 16.9168 138.494 16.6725 138.036 16.4593C137.575 16.2462 137.117 16.0354 136.662 15.8246C136.207 15.6091 135.734 15.4366 135.273 15.2426L134.58 14.96C134.347 14.8666 134.112 14.7875 133.879 14.7037C133.409 14.5336 132.943 14.3684 132.478 14.2031C132.007 14.0546 131.537 13.9061 131.068 13.7624C129.189 13.2043 127.312 12.7349 125.447 12.4139C124.519 12.2295 123.59 12.1193 122.675 11.9852C122.217 11.9229 121.759 11.8894 121.303 11.8415C120.848 11.7984 120.398 11.7433 119.947 11.7241C116.35 11.4894 112.917 11.6092 109.795 12.093C109.018 12.2199 108.257 12.3301 107.49 12.5002C106.729 12.6582 105.98 12.7948 105.257 12.9864C103.804 13.3217 102.428 13.7217 101.12 14.1121C95.9063 15.748 91.9219 17.6785 89.2301 19.094C87.8767 19.791 86.8647 20.4065 86.164 20.7946C85.4809 21.2089 85.1191 21.4293 85.1191 21.4293Z" fill="#FFB323"></path><path d="M121.432 14.8977C121.432 14.8977 121.536 14.9145 121.743 14.9504C121.951 14.9815 122.257 15.051 122.659 15.1372C123.059 15.2258 123.56 15.3145 124.139 15.4558C124.718 15.6091 125.394 15.7528 126.138 15.9707C127.633 16.3803 129.432 16.9623 131.453 17.7551C133.472 18.5551 135.698 19.6066 137.97 20.9694C138.24 21.1395 138.516 21.3143 138.794 21.4891C138.931 21.5778 139.073 21.664 139.214 21.7526C139.351 21.8484 139.488 21.9442 139.624 22.04C139.903 22.2316 140.178 22.4233 140.462 22.6197C140.735 22.8256 141.011 23.0364 141.286 23.2496C141.428 23.355 141.567 23.4604 141.706 23.5681C141.843 23.6807 141.977 23.7933 142.114 23.9082C142.384 24.1358 142.665 24.3609 142.938 24.5957C143.465 25.0891 144.024 25.5657 144.537 26.1022C145.076 26.6148 145.567 27.1848 146.085 27.7429C146.328 28.0327 146.574 28.3273 146.819 28.6219C147.075 28.9117 147.302 29.2231 147.533 29.5344C148.016 30.1428 148.433 30.8015 148.881 31.453C149.283 32.1284 149.713 32.799 150.072 33.5104C150.166 33.6852 150.262 33.8625 150.356 34.0373C150.442 34.2193 150.525 34.4014 150.611 34.581C150.697 34.763 150.781 34.9451 150.867 35.1271C150.955 35.3067 151.039 35.4912 151.11 35.6804C151.259 36.0516 151.411 36.4277 151.563 36.8037C151.692 37.1869 151.821 37.5726 151.952 37.9582C152.438 39.515 152.792 41.1174 152.982 42.8059C153.366 46.1711 153.118 49.8094 152.182 53.3781C151.714 55.1625 151.087 56.8846 150.325 58.5013C150.126 58.8989 149.928 59.2965 149.728 59.6941C149.521 60.0821 149.296 60.4582 149.083 60.8414C148.861 61.2222 148.6 61.5983 148.365 61.9743C148.122 62.3503 147.897 62.7384 147.621 63.0809C147.36 63.4353 147.102 63.7874 146.844 64.1395C146.72 64.3191 146.576 64.4772 146.437 64.6425L146.02 65.1335C145.491 65.8137 144.876 66.3886 144.304 67.0017C143.095 68.1418 141.871 69.2244 140.535 70.0867C140.373 70.1992 140.211 70.3118 140.049 70.4244C139.887 70.5393 139.713 70.628 139.546 70.731C139.207 70.9321 138.875 71.1309 138.541 71.3297C138.2 71.5142 137.851 71.6794 137.512 71.8567C137.342 71.9453 137.173 72.0339 137.003 72.1201C136.834 72.2064 136.654 72.271 136.48 72.3477C136.131 72.4986 135.787 72.6471 135.442 72.798C135.093 72.9321 134.737 73.0447 134.39 73.174C133.702 73.4494 132.983 73.6075 132.293 73.8207C129.495 74.556 126.73 74.7835 124.192 74.7285C121.652 74.6638 119.338 74.2901 117.339 73.8015C117.089 73.7393 116.843 73.677 116.603 73.6171C116.36 73.5572 116.122 73.4997 115.894 73.4207C115.437 73.277 114.994 73.1381 114.571 73.0063C114.149 72.8698 113.757 72.7022 113.375 72.5656C112.998 72.4195 112.626 72.3022 112.297 72.1417C111.963 71.9956 111.644 71.8543 111.348 71.7225C111.047 71.5956 110.769 71.4734 110.521 71.3393C110.015 71.083 109.588 70.8675 109.241 70.6926C108.897 70.513 108.649 70.3525 108.474 70.2591C108.302 70.1585 108.214 70.1082 108.214 70.1082C108.214 70.1082 108.295 70.1681 108.454 70.2855C108.616 70.4004 108.844 70.5872 109.165 70.8028C109.491 71.016 109.894 71.2747 110.369 71.5836C110.605 71.7465 110.87 71.8974 111.156 72.0555C111.444 72.2159 111.748 72.3884 112.069 72.5704C112.386 72.7644 112.747 72.9201 113.114 73.1045C113.486 73.2794 113.868 73.4878 114.285 73.665C114.703 73.8399 115.138 74.0195 115.593 74.2087C115.819 74.3117 116.054 74.3931 116.297 74.4746C116.54 74.5584 116.785 74.6446 117.035 74.7309C119.044 75.4111 121.415 75.9979 124.086 76.2613C126.752 76.52 129.728 76.4817 132.814 75.8661C133.575 75.6817 134.37 75.55 135.139 75.2937C135.526 75.1763 135.923 75.0734 136.313 74.944C136.7 74.8003 137.087 74.6566 137.479 74.5129C137.674 74.4362 137.876 74.374 138.068 74.2901C138.258 74.2039 138.45 74.1177 138.643 74.0315C139.027 73.8542 139.422 73.6914 139.809 73.5045C140.186 73.3033 140.568 73.0974 140.95 72.8938C141.14 72.7884 141.339 72.6974 141.524 72.58C141.709 72.4626 141.894 72.3477 142.081 72.2279C143.601 71.3369 145.008 70.1944 146.394 68.9729C147.049 68.3214 147.75 67.6987 148.357 66.9706L148.83 66.4389C148.99 66.2616 149.157 66.0892 149.296 65.8952C149.589 65.5167 149.885 65.1335 150.181 64.7527C150.49 64.3814 150.748 63.9647 151.021 63.5599C151.289 63.1503 151.58 62.7479 151.836 62.3312C152.079 61.9096 152.334 61.4953 152.572 61.0665C152.797 60.6306 153.025 60.1947 153.252 59.7564C154.115 57.9768 154.818 56.0846 155.335 54.1206C156.367 50.1926 156.589 46.1783 156.068 42.4539C155.555 38.7342 154.282 35.2996 152.494 32.2937C152.066 31.532 151.563 30.823 151.089 30.1117C150.568 29.4291 150.078 28.7393 149.523 28.1093C149.255 27.7884 148.992 27.465 148.701 27.168C148.418 26.8663 148.142 26.5597 147.859 26.2651C147.269 25.6974 146.708 25.1226 146.098 24.6076C145.516 24.0687 144.889 23.5945 144.294 23.1107C143.991 22.8783 143.677 22.658 143.373 22.4352C143.222 22.3227 143.07 22.2125 142.918 22.1023C142.764 21.9993 142.607 21.8987 142.453 21.7957C142.144 21.5921 141.838 21.3909 141.537 21.1898C141.223 21.0053 140.914 20.8233 140.608 20.6413C140.457 20.5503 140.307 20.4592 140.156 20.3706C140.001 20.2868 139.847 20.2053 139.693 20.1239C139.386 19.961 139.085 19.7982 138.787 19.6401C136.318 18.3922 133.942 17.4893 131.812 16.8426C129.677 16.2031 127.802 15.7767 126.257 15.5037C125.485 15.3528 124.792 15.2761 124.197 15.1779C123.6 15.0917 123.089 15.0534 122.679 15.0055C122.272 14.9624 121.961 14.9241 121.748 14.9169C121.538 14.9049 121.432 14.8977 121.432 14.8977Z" fill="#FFB323"></path><path d="M105.896 9.73394C105.896 9.73394 106.314 9.68603 107.103 9.59262C107.498 9.54233 107.986 9.48484 108.568 9.44652C108.856 9.42257 109.168 9.39862 109.501 9.36987C109.668 9.3579 109.84 9.34592 110.015 9.33155C110.195 9.32437 110.377 9.31718 110.564 9.31C111.318 9.28125 112.153 9.23575 113.066 9.25251C113.524 9.2597 114 9.24293 114.495 9.26688C114.989 9.28604 115.502 9.3076 116.034 9.32916C118.159 9.4561 120.567 9.70519 123.185 10.1842C128.407 11.1351 134.509 13.0225 140.477 16.4068C141.947 17.2691 143.416 18.2008 144.823 19.2762C146.219 20.354 147.603 21.5085 148.888 22.7971C150.171 24.0857 151.403 25.4605 152.521 26.9478C153.632 28.4376 154.646 30.0208 155.539 31.6854C156.415 33.3573 157.128 35.0746 157.707 36.8039C158.277 38.538 158.659 40.2936 158.914 42.0373C159.18 43.7833 159.261 45.5222 159.238 47.2252C159.241 48.0802 159.17 48.9209 159.117 49.7544C159.02 50.5855 158.952 51.4095 158.805 52.2166C158.307 55.4525 157.346 58.4584 156.172 61.1601C156.012 61.493 155.858 61.8236 155.701 62.1517C155.623 62.317 155.547 62.4798 155.471 62.6427C155.385 62.8008 155.302 62.9589 155.216 63.1169C155.049 63.4307 154.884 63.7445 154.72 64.0558C154.535 64.3552 154.355 64.6546 154.176 64.9492C153.488 66.154 152.701 67.2318 151.962 68.2737C150.416 70.312 148.78 71.9862 147.259 73.3801C146.862 73.7131 146.475 74.0316 146.108 74.3406C145.921 74.4939 145.739 74.6448 145.559 74.7933C145.375 74.9298 145.19 75.0639 145.008 75.1933C144.646 75.4567 144.299 75.7082 143.97 75.9477C143.644 76.192 143.3 76.3813 142.991 76.5825C142.364 76.9753 141.815 77.3393 141.301 77.5956C140.798 77.8686 140.371 78.101 140.026 78.2878C139.675 78.465 139.399 78.5824 139.217 78.671C139.035 78.7549 138.939 78.798 138.939 78.798C138.939 78.798 139.04 78.7644 139.232 78.7022C139.424 78.6351 139.715 78.5465 140.087 78.4076C140.451 78.2567 140.904 78.0674 141.441 77.8471C141.987 77.6387 142.579 77.3321 143.252 76.9944C143.586 76.8196 143.958 76.6615 144.312 76.4435C144.674 76.2304 145.051 76.0076 145.445 75.7753C145.643 75.6579 145.845 75.5382 146.05 75.416C146.247 75.2819 146.447 75.143 146.652 75.0017C147.062 74.719 147.487 74.4244 147.927 74.1202C149.622 72.8221 151.469 71.2221 153.247 69.215C154.1 68.1875 155.011 67.1144 155.818 65.9049C156.028 65.6055 156.24 65.3061 156.453 65.0019C156.647 64.6858 156.847 64.3672 157.047 64.0463C157.146 63.8834 157.247 63.7229 157.346 63.56C157.439 63.3924 157.533 63.2247 157.626 63.0571C157.814 62.7193 158.001 62.3792 158.191 62.0343C159.617 59.2488 160.817 56.0992 161.507 52.6573C161.702 51.8023 161.813 50.9185 161.953 50.0299C162.046 49.1365 162.155 48.2335 162.185 47.3138C162.276 45.4767 162.243 43.5869 162.001 41.678C161.768 39.7715 161.383 37.8362 160.784 35.9296C160.174 34.0231 159.402 32.1357 158.446 30.3082C157.47 28.4903 156.351 26.773 155.124 25.1659C153.892 23.5659 152.529 22.0977 151.112 20.7372C149.69 19.3792 148.165 18.172 146.622 17.0631C145.071 15.9589 143.454 15.0128 141.843 14.1578C138.607 12.4931 135.356 11.2692 132.247 10.3854C129.136 9.504 126.16 8.9651 123.433 8.66331C120.704 8.36391 118.219 8.30403 116.049 8.35673C115.507 8.38068 114.984 8.40463 114.48 8.42619C113.977 8.44774 113.494 8.50523 113.031 8.54115C112.105 8.60582 111.267 8.73277 110.513 8.83097C110.326 8.85731 110.142 8.88126 109.964 8.90522C109.79 8.93635 109.618 8.96749 109.451 8.99623C109.122 9.05611 108.811 9.11359 108.525 9.16389C107.948 9.26209 107.468 9.37227 107.08 9.46329C106.304 9.64053 105.896 9.73394 105.896 9.73394Z" fill="#FFB323"></path><path d="M67.6328 29.8339C67.6328 29.8339 68.0022 29.5848 68.7055 29.1178C69.0596 28.883 69.4922 28.5932 70.0083 28.2483C70.5269 27.9154 71.1265 27.5274 71.7994 27.0915C74.5013 25.3646 78.4529 22.9263 83.5379 20.3587C88.6178 17.8007 94.8816 15.1541 102.132 13.4703C102.585 13.3649 103.04 13.2595 103.498 13.1541C103.961 13.0655 104.424 12.9745 104.892 12.8835C105.823 12.6871 106.774 12.5505 107.733 12.3996C107.971 12.3637 108.214 12.3182 108.452 12.2895C108.689 12.2631 108.927 12.2344 109.165 12.208C109.643 12.1577 110.119 12.0811 110.602 12.0523C111.088 12.0164 111.573 11.9805 112.064 11.9446C112.553 11.9086 113.046 11.9086 113.542 11.8895C115.523 11.8368 117.551 11.8823 119.596 12.0787C121.642 12.2679 123.717 12.5481 125.778 12.9864C129.912 13.8343 133.839 15.1325 137.401 16.7875C137.623 16.8929 137.851 16.9863 138.068 17.0965L138.719 17.427C139.149 17.6498 139.594 17.851 140.004 18.0881C140.416 18.3204 140.828 18.5504 141.238 18.7803C141.635 19.027 142.033 19.2737 142.427 19.518C143.986 20.524 145.443 21.609 146.791 22.7515C148.122 23.9083 149.346 25.1131 150.457 26.3514C150.73 26.6627 150.991 26.9813 151.254 27.2927C151.385 27.4507 151.517 27.6064 151.649 27.7621C151.77 27.9226 151.891 28.0831 152.013 28.2435C152.253 28.5621 152.499 28.8782 152.731 29.1968C152.954 29.5201 153.174 29.8435 153.392 30.162C153.5 30.3249 153.614 30.4806 153.715 30.6435C153.814 30.8063 153.913 30.9692 154.011 31.1321C154.209 31.4554 154.404 31.7764 154.598 32.0973C154.775 32.4231 154.947 32.7488 155.122 33.0697C155.208 33.2302 155.294 33.3907 155.38 33.5488C155.464 33.7092 155.534 33.8745 155.61 34.035C155.762 34.3583 155.914 34.6793 156.061 34.9954C156.215 35.3116 156.326 35.6373 156.458 35.9535C156.584 36.2721 156.718 36.5834 156.832 36.8972C156.941 37.2133 157.045 37.5271 157.148 37.8361C157.971 40.3127 158.388 42.6623 158.57 44.7485C158.755 46.837 158.704 48.6574 158.611 50.1423C158.55 50.8848 158.502 51.5483 158.413 52.1159C158.34 52.6884 158.282 53.1722 158.203 53.5578C158.135 53.9482 158.082 54.2452 158.047 54.444C158.014 54.6452 157.991 54.7458 157.991 54.7458C157.991 54.7458 158.026 54.6476 158.082 54.4536C158.14 54.2572 158.226 53.9674 158.34 53.5866C158.461 53.2081 158.575 52.7291 158.709 52.1638C158.859 51.601 158.977 50.9423 159.114 50.1974C159.365 48.7077 159.595 46.8658 159.597 44.7102C159.602 42.5545 159.38 40.0875 158.717 37.4337C158.631 37.1008 158.545 36.7655 158.459 36.4253C158.363 36.0876 158.246 35.7523 158.14 35.4098C158.024 35.0673 157.93 34.7152 157.794 34.3727C157.659 34.0302 157.525 33.6829 157.389 33.3308C157.318 33.156 157.255 32.9763 157.179 32.8015C157.1 32.629 157.019 32.4542 156.941 32.2793C156.779 31.9273 156.617 31.5728 156.453 31.2159C156.271 30.8662 156.086 30.5141 155.899 30.1596C155.805 29.98 155.711 29.8004 155.615 29.6207C155.519 29.4435 155.408 29.271 155.304 29.0938C155.092 28.7417 154.879 28.3872 154.664 28.028C154.436 27.6759 154.194 27.3286 153.956 26.9765C153.837 26.7993 153.718 26.622 153.597 26.4424C153.468 26.2699 153.336 26.0975 153.204 25.925C152.941 25.5801 152.683 25.2256 152.408 24.8783C151.294 23.5035 150.045 22.1599 148.673 20.8617C143.163 15.6786 135.258 11.7985 126.467 9.98294C124.271 9.51349 122.062 9.22607 119.879 9.05122C117.698 8.8644 115.533 8.84764 113.418 8.94823C111.298 9.02967 109.231 9.29313 107.23 9.64761C106.23 9.83444 105.241 10.0117 104.277 10.2488C103.792 10.359 103.311 10.4715 102.833 10.5817C102.36 10.7087 101.889 10.8356 101.421 10.9625C93.9405 13.008 87.6843 16.0953 82.7258 19.027C77.7623 21.9706 74.0257 24.7418 71.4959 26.7058C70.8659 27.204 70.3094 27.6423 69.8262 28.0256C69.348 28.416 68.9458 28.7465 68.6194 29.0124C67.9693 29.5489 67.6328 29.8339 67.6328 29.8339Z" fill="#FFB323"></path><path d="M37.3887 51.3088C37.3887 51.3088 39.6655 49.316 43.7841 45.7113C45.8484 43.9102 48.3808 41.709 51.3609 39.1869C54.3411 36.6696 57.7791 33.8386 61.6852 30.8231C63.6483 29.3261 65.7228 27.7789 67.9313 26.222C70.1449 24.67 72.485 23.1011 74.9668 21.5587C79.9329 18.4833 85.4858 15.5085 91.6763 13.1086C94.7703 11.9134 98.0212 10.8667 101.414 10.05C101.836 9.94699 102.261 9.844 102.686 9.74341C103.119 9.65479 103.549 9.56617 103.981 9.47994C104.412 9.39132 104.847 9.30509 105.279 9.21647C105.717 9.14462 106.157 9.07277 106.597 9.00091C108.348 8.68475 110.159 8.5123 111.973 8.37817C115.614 8.17219 119.332 8.33506 123.049 8.8572C123.512 8.93145 123.977 9.0057 124.44 9.07995L125.138 9.19492L125.832 9.33384C126.295 9.42485 126.758 9.51826 127.223 9.61167C127.681 9.72185 128.144 9.83203 128.604 9.9422C129.533 10.1482 130.441 10.4332 131.362 10.6871C131.82 10.8188 132.268 10.9769 132.725 11.1206C133.178 11.2715 133.639 11.408 134.084 11.5829C137.686 12.8858 141.13 14.4882 144.241 16.5121C145.795 17.5204 147.28 18.6031 148.648 19.791C149.354 20.3635 149.992 20.9982 150.657 21.6042C151.274 22.2485 151.927 22.8616 152.499 23.5371C153.7 24.8424 154.755 26.2436 155.737 27.6663C155.972 28.028 156.207 28.3896 156.443 28.7513C156.683 29.1082 156.878 29.489 157.098 29.8554C157.543 30.586 157.91 31.3524 158.294 32.1045C158.492 32.4757 158.638 32.8709 158.813 33.2518C158.975 33.6374 159.167 34.0134 159.301 34.4062C159.587 35.187 159.896 35.9583 160.116 36.7511C160.629 38.3175 160.946 39.9151 161.204 41.4935C161.664 44.6646 161.7 47.8119 161.328 50.8273C161.168 52.3387 160.862 53.8093 160.538 55.2512C160.167 56.6835 159.764 58.087 159.246 59.4331C158.239 62.1252 156.956 64.6473 155.441 66.8868C153.936 69.1334 152.276 71.1789 150.475 72.9537C148.656 74.7117 146.741 76.2207 144.798 77.4853C144.302 77.7895 143.806 78.0745 143.32 78.3643C143.075 78.5033 142.84 78.6589 142.589 78.7811C142.341 78.908 142.093 79.0326 141.848 79.1571C141.355 79.3966 140.879 79.6625 140.388 79.8709C139.895 80.0793 139.409 80.2852 138.931 80.4864C138.461 80.702 137.972 80.8481 137.499 81.0182C137.024 81.1762 136.566 81.3559 136.1 81.49C135.632 81.6169 135.177 81.7463 134.727 81.8708C134.501 81.9307 134.281 81.993 134.059 82.0529C133.836 82.1008 133.616 82.1463 133.396 82.1918C132.958 82.2852 132.528 82.3762 132.111 82.4648C131.901 82.5127 131.693 82.5463 131.483 82.5726C131.276 82.6037 131.071 82.6349 130.869 82.6636C130.466 82.7235 130.069 82.781 129.685 82.8361C129.297 82.8888 128.921 82.9079 128.551 82.9439C127.815 83.0061 127.122 83.0756 126.464 83.0756C125.809 83.0852 125.197 83.1235 124.627 83.1067C123.489 83.0612 122.52 83.0564 121.748 82.9606C120.972 82.884 120.377 82.848 119.983 82.7858C119.588 82.7259 119.386 82.6948 119.386 82.6948C119.386 82.6948 119.585 82.7379 119.978 82.8193C120.367 82.9031 120.959 82.9726 121.731 83.0924C122.502 83.2289 123.471 83.2864 124.615 83.3894C125.187 83.4349 125.806 83.4301 126.469 83.454C127.132 83.4852 127.838 83.4516 128.587 83.4229C128.961 83.4061 129.346 83.4037 129.74 83.3702C130.135 83.3319 130.54 83.2935 130.955 83.2504C131.162 83.2313 131.372 83.2097 131.584 83.1882C131.797 83.1714 132.012 83.1451 132.227 83.1067C132.657 83.0373 133.1 82.9654 133.55 82.8912C133.778 82.8528 134.006 82.8145 134.236 82.7786C134.466 82.7259 134.694 82.6756 134.926 82.6229C135.392 82.5151 135.867 82.4049 136.353 82.2948C136.836 82.1798 137.315 82.0145 137.81 81.8732C138.304 81.7199 138.817 81.5906 139.311 81.3894C139.811 81.2026 140.322 81.0134 140.839 80.8194C141.357 80.6254 141.858 80.3739 142.382 80.1463C142.64 80.029 142.903 79.9092 143.166 79.7894C143.432 79.6697 143.682 79.5212 143.943 79.3871C144.456 79.1092 144.988 78.8338 145.514 78.5368C147.588 77.3057 149.65 75.8087 151.623 74.0411C153.579 72.2567 155.398 70.1825 157.057 67.8808C157.457 67.2964 157.859 66.7048 158.264 66.1084C158.641 65.488 159.031 64.8605 159.387 64.2162C159.726 63.5623 160.103 62.9156 160.409 62.2306C160.569 61.8929 160.728 61.5528 160.89 61.2103C161.042 60.8654 161.181 60.5133 161.328 60.1636C161.92 58.7601 162.393 57.2894 162.83 55.7853C163.223 54.2716 163.589 52.7219 163.802 51.1219C164.285 47.9292 164.341 44.5736 163.921 41.1581C163.686 39.4552 163.377 37.7211 162.858 36.0206C162.636 35.1607 162.322 34.32 162.028 33.4721C161.889 33.0434 161.695 32.6362 161.528 32.2147C161.345 31.8003 161.191 31.3716 160.986 30.9644C160.589 30.1453 160.202 29.3141 159.736 28.519C159.509 28.119 159.301 27.7046 159.048 27.3166C158.8 26.9238 158.555 26.531 158.305 26.1358C157.272 24.5861 156.152 23.0628 154.879 21.6425C154.269 20.912 153.581 20.2413 152.919 19.5419C152.213 18.8833 151.532 18.1935 150.778 17.5707C149.316 16.2822 147.727 15.1013 146.06 14.0044C142.698 11.7937 139.063 10.0907 135.23 8.70391C134.754 8.51949 134.266 8.37338 133.785 8.2153C133.302 8.06201 132.824 7.89435 132.338 7.75544C131.362 7.48718 130.395 7.19018 129.414 6.97222C128.923 6.85726 128.435 6.74229 127.947 6.62732C127.453 6.53152 126.962 6.43332 126.472 6.33751L125.735 6.1938L124.997 6.07644C124.503 5.99979 124.01 5.92554 123.519 5.8489C119.578 5.31718 115.629 5.17826 111.758 5.43933C111.275 5.48484 110.792 5.52795 110.311 5.57346L109.59 5.64052L108.872 5.73393C108.393 5.801 107.918 5.86567 107.442 5.93033C106.969 5.99979 106.519 6.09081 106.056 6.17224C105.598 6.25607 105.14 6.33751 104.685 6.41894C104.232 6.51715 103.779 6.61535 103.329 6.71355C102.881 6.81175 102.431 6.90995 101.983 7.00815C101.54 7.12312 101.1 7.23808 100.66 7.35066C97.1383 8.26321 93.7812 9.41288 90.6113 10.7182C84.269 13.3361 78.6679 16.536 73.7221 19.8198C71.2505 21.4653 68.9332 23.1323 66.7524 24.7777C64.5793 26.428 62.5504 28.0663 60.6378 29.6495C56.8304 32.835 53.5164 35.8194 50.6576 38.478C47.8015 41.1366 45.388 43.4599 43.4299 45.3688C41.4819 47.2801 39.9691 48.7627 38.942 49.7687C37.9225 50.777 37.3887 51.3088 37.3887 51.3088Z" fill="#FFB323"></path><path d="M34.8596 53.7605C33.577 53.7605 32.4032 53.4802 31.3381 52.9174C30.2781 52.3569 29.4357 51.5737 28.8083 50.5701C28.1809 49.5618 27.8672 48.4289 27.8672 47.169C27.8672 45.9116 28.1809 44.7811 28.8083 43.7775C29.4357 42.7763 30.2781 41.9931 31.3381 41.4302C32.4032 40.8698 33.577 40.5872 34.8596 40.5872C36.1347 40.5872 37.3035 40.8698 38.3711 41.4302C39.4361 41.9931 40.2735 42.7763 40.8806 43.7775C41.4929 44.7811 41.8015 45.9116 41.8015 47.169C41.8015 48.4289 41.4903 49.5618 40.8705 50.5701C40.2558 51.5737 39.4184 52.3569 38.3609 52.9174C37.3009 53.4802 36.1347 53.7605 34.8596 53.7605ZM34.8596 50.9054C35.9374 50.9054 36.8051 50.5653 37.4603 49.8803C38.113 49.1977 38.4419 48.2947 38.4419 47.169C38.4419 46.0337 38.113 45.126 37.4603 44.4481C36.8051 43.7655 35.9374 43.423 34.8596 43.423C33.7592 43.423 32.8813 43.7631 32.2286 44.4386C31.581 45.1092 31.2572 46.0193 31.2572 47.169C31.2572 48.3067 31.581 49.2145 32.2286 49.8899C32.8813 50.5677 33.7592 50.9054 34.8596 50.9054Z" fill="#FFB323"></path><path d="M50.573 53.6358L47.7497 48.7784H46.9604V53.6358H43.6514V40.769H49.2069C50.2719 40.769 51.1827 40.9487 51.9391 41.3056C52.693 41.6576 53.2571 42.1439 53.629 42.7618C54.006 43.375 54.1957 44.0624 54.1957 44.8216C54.1957 45.6791 53.9377 46.4407 53.4266 47.1114C52.9207 47.782 52.1718 48.2587 51.1801 48.5389L54.3171 53.6358H50.573ZM46.9604 46.5653H49.0146C49.6142 46.5653 50.067 46.4264 50.3706 46.1438C50.6742 45.8635 50.826 45.4635 50.826 44.9462C50.826 44.4624 50.6742 44.0791 50.3706 43.7965C50.067 43.5163 49.6142 43.375 49.0146 43.375H46.9604V46.5653Z" fill="#FFB323"></path><path d="M55.708 47.1882C55.708 45.9188 55.9964 44.7835 56.5783 43.7871C57.1576 42.7907 57.9671 42.0147 59.0069 41.459C60.0441 40.9033 61.223 40.6255 62.5386 40.6255C64.1576 40.6255 65.5389 41.0279 66.6875 41.8326C67.8335 42.6374 68.6 43.7368 68.9846 45.1284H65.3517C65.081 44.5918 64.6965 44.1847 64.1981 43.902C63.6972 43.6218 63.1356 43.4805 62.5082 43.4805C61.4811 43.4805 60.6513 43.8206 60.0188 44.496C59.3914 45.1667 59.0777 46.0649 59.0777 47.1882C59.0777 48.3139 59.3914 49.2097 60.0188 49.8803C60.6513 50.551 61.4811 50.8863 62.5082 50.8863C63.1356 50.8863 63.6972 50.7474 64.1981 50.4647C64.6965 50.1845 65.081 49.7749 65.3517 49.2384H68.9846C68.6 50.6324 67.8335 51.7294 66.6875 52.5342C65.5389 53.3341 64.1576 53.7317 62.5386 53.7317C61.223 53.7317 60.0441 53.4539 59.0069 52.8982C57.9671 52.3378 57.1576 51.5641 56.5783 50.5797C55.9964 49.5905 55.708 48.46 55.708 47.1882Z" fill="#FFB323"></path><path d="M82.7961 40.769V53.6358H79.4871V48.3377H74.3364V53.6358H71.0273V40.769H74.3364V45.8084H79.4871V40.769H82.7961Z" fill="#FFB323"></path><path d="M88.4892 43.2792V45.8851H92.9215V48.2994H88.4892V51.1257H93.4983V53.6358H85.1802V40.769H93.4983V43.2792H88.4892Z" fill="#FFB323"></path><path d="M100.572 53.7605C99.5731 53.7605 98.6801 53.612 97.8908 53.3102C97.1065 53.0036 96.4791 52.5509 96.0086 51.9497C95.5355 51.3509 95.2851 50.6276 95.2598 49.7845H98.7914C98.8369 50.2635 99.009 50.6276 99.3075 50.8767C99.6035 51.1258 99.9906 51.2503 100.471 51.2503C100.962 51.2503 101.352 51.145 101.635 50.9342C101.918 50.7186 102.06 50.4216 102.06 50.0432C102.06 49.7246 101.944 49.4636 101.716 49.2576C101.493 49.0468 101.215 48.8744 100.886 48.7402C100.555 48.6061 100.087 48.4528 99.4795 48.2804C98.6017 48.0265 97.8857 47.7702 97.3342 47.5139C96.7802 47.26 96.3021 46.8816 95.8973 46.3834C95.4976 45.8804 95.3002 45.2242 95.3002 44.4194C95.3002 43.2194 95.7581 42.2805 96.6765 41.6027C97.5923 40.9273 98.7864 40.5872 100.259 40.5872C101.756 40.5872 102.961 40.9273 103.871 41.6027C104.787 42.2805 105.28 43.2266 105.349 44.4386H101.766C101.739 44.0242 101.577 43.6985 101.281 43.4613C100.982 43.2194 100.603 43.0973 100.137 43.0973C99.7376 43.0973 99.4138 43.2003 99.1658 43.4038C98.923 43.6026 98.8015 43.8901 98.8015 44.2661C98.8015 44.6876 99.0064 45.0134 99.4188 45.2433C99.8362 45.4733 100.484 45.7224 101.362 45.9906C102.237 46.2732 102.95 46.5439 103.497 46.805C104.048 47.0612 104.524 47.4349 104.924 47.9259C105.321 48.4121 105.521 49.0372 105.521 49.8037C105.521 50.539 105.323 51.2072 104.934 51.806C104.542 52.4 103.973 52.8767 103.224 53.2335C102.475 53.5856 101.589 53.7605 100.572 53.7605Z" fill="#FFB323"></path><path d="M117.336 40.769V43.2792H113.734V53.6358H110.425V43.2792H106.822V40.769H117.336Z" fill="#FFB323"></path><path d="M125.925 53.6358L123.102 48.7784H122.312V53.6358H119.003V40.769H124.559C125.624 40.769 126.535 40.9487 127.291 41.3056C128.045 41.6576 128.609 42.1439 128.981 42.7618C129.358 43.375 129.548 44.0624 129.548 44.8216C129.548 45.6791 129.29 46.4407 128.779 47.1114C128.273 47.782 127.524 48.2587 126.532 48.5389L129.669 53.6358H125.925ZM122.312 46.5653H124.367C124.966 46.5653 125.419 46.4264 125.723 46.1438C126.026 45.8635 126.178 45.4635 126.178 44.9462C126.178 44.4624 126.026 44.0791 125.723 43.7965C125.419 43.5163 124.966 43.375 124.367 43.375H122.312V46.5653Z" fill="#FFB323"></path><path d="M138.053 53.7605C136.77 53.7605 135.596 53.4802 134.531 52.9174C133.471 52.3569 132.629 51.5737 132.001 50.5701C131.374 49.5618 131.06 48.4289 131.06 47.169C131.06 45.9116 131.374 44.7811 132.001 43.7775C132.629 42.7763 133.471 41.9931 134.531 41.4302C135.596 40.8698 136.77 40.5872 138.053 40.5872C139.328 40.5872 140.496 40.8698 141.564 41.4302C142.629 41.9931 143.466 42.7763 144.074 43.7775C144.686 44.7811 144.994 45.9116 144.994 47.169C144.994 48.4289 144.683 49.5618 144.063 50.5701C143.449 51.5737 142.611 52.3569 141.554 52.9174C140.494 53.4802 139.328 53.7605 138.053 53.7605ZM138.053 50.9054C139.13 50.9054 139.998 50.5653 140.653 49.8803C141.306 49.1977 141.635 48.2947 141.635 47.169C141.635 46.0337 141.306 45.126 140.653 44.4481C139.998 43.7655 139.13 43.423 138.053 43.423C136.952 43.423 136.074 43.7631 135.421 44.4386C134.774 45.1092 134.45 46.0193 134.45 47.169C134.45 48.3067 134.774 49.2145 135.421 49.8899C136.074 50.5677 136.952 50.9054 138.053 50.9054Z" fill="#FFB323"></path><path d="M162.308 79.8975C161.741 79.8975 161.278 79.7418 160.922 79.4281C160.57 79.1167 160.396 78.7287 160.396 78.2688C160.396 77.797 160.57 77.4018 160.922 77.0808C161.278 76.7623 161.741 76.6018 162.308 76.6018C162.855 76.6018 163.302 76.7623 163.654 77.0808C164.011 77.4018 164.19 77.797 164.19 78.2688C164.19 78.7287 164.011 79.1167 163.654 79.4281C163.302 79.7418 162.855 79.8975 162.308 79.8975Z" fill="#FFB323"></path><path d="M174.263 77.5598H169.355L168.576 79.7537H165.226L169.972 67.3181H173.676L178.432 79.7537H175.042L174.263 77.5598ZM173.433 75.2221L171.804 70.6617L170.195 75.2221H173.433Z" fill="#FFB323"></path><path d="M183.072 67.3181V79.7537H179.874V67.3181H183.072Z" fill="#FFB323"></path></svg>